<svg width="30" height="26" viewBox="0 0 30 26" fill="none" xmlns="http://www.w3.org/2000/svg">
<path d="M27.3214 22.1026V0.678711L26.504 0.747245C23.2256 1.01824 20.01 1.80193 16.9747 3.07007L15.5357 3.66752V25.0066L16.5836 24.5711C19.7246 23.2642 23.0504 22.4557 26.4407 22.1742L27.3214 22.1026Z" fill="#DACEA2"/>
<path d="M30 3.8457H28.3928V22.5957C28.3939 22.8751 28.1797 23.1084 27.9011 23.1314L26.5291 23.2439C26.1331 23.2766 25.7381 23.3171 25.3447 23.3655C25.217 23.381 25.0901 23.4014 24.9633 23.4192C24.698 23.4545 24.4333 23.4903 24.1694 23.5322C24.0156 23.5567 23.8628 23.5855 23.7095 23.6125C23.4733 23.6538 23.2366 23.6949 23.0009 23.7414C22.84 23.7736 22.6794 23.8097 22.5154 23.8445C22.291 23.8921 22.0666 23.9407 21.8437 23.9938C21.6765 24.0336 21.5099 24.0757 21.3438 24.1181C21.127 24.1717 20.9112 24.2295 20.6956 24.2897C20.5279 24.3357 20.3603 24.3844 20.1931 24.4336C19.9789 24.4969 19.7678 24.5612 19.5562 24.6287C19.3906 24.6823 19.2248 24.7359 19.0597 24.7893C18.8478 24.8607 18.637 24.9345 18.4269 25.0106C18.2663 25.0689 18.1055 25.1275 17.9412 25.189C17.8677 25.217 17.7947 25.2468 17.7215 25.2753H30V3.8457Z" fill="#DACEA2"/>
<path d="M3.49601 0.747245L2.67857 0.678711V22.1041L3.62941 22.185C7.01765 22.4683 10.3405 23.2818 13.4763 24.5957L14.4643 25.0066V3.66752L13.0269 3.07059C9.99128 1.80219 6.77517 1.01824 3.49601 0.747245Z" fill="#DACEA2"/>
<path d="M0 3.8457V25.2743H12.2872C12.2212 25.2484 12.1553 25.2207 12.0889 25.1961C11.9356 25.1377 11.781 25.082 11.6267 25.0258C11.409 24.9468 11.1917 24.8699 10.9725 24.7964C10.8139 24.7427 10.6549 24.6907 10.4956 24.6399C10.2782 24.5685 10.0601 24.5013 9.84166 24.4385C9.68079 24.3914 9.52018 24.3441 9.35957 24.2991C9.13932 24.2382 8.91854 24.1804 8.69725 24.1236C8.53664 24.0823 8.37577 24.0409 8.2115 24.0025C7.98706 23.9489 7.76132 23.8997 7.53584 23.8513C7.37523 23.8165 7.21436 23.7812 7.05375 23.749C6.82016 23.703 6.58552 23.6616 6.35088 23.6206C6.19707 23.5936 6.04327 23.5669 5.8892 23.5395C5.63023 23.4984 5.37048 23.4636 5.11074 23.4286C4.97942 23.411 4.84916 23.3901 4.71811 23.3752C4.32521 23.3276 3.93232 23.2871 3.53943 23.2536L2.09734 23.1314C1.81928 23.1076 1.6061 22.8745 1.60714 22.5957V3.8457H0Z" fill="#DACEA2"/>
</svg>
