<svg width="14" height="12" viewBox="0 0 14 12" fill="none" xmlns="http://www.w3.org/2000/svg">
<path d="M12.4687 1.3428C11.7958 0.612923 10.8724 0.210938 9.86848 0.210938C9.11806 0.210938 8.43083 0.448181 7.82582 0.916023C7.52054 1.15218 7.24392 1.44109 7.00003 1.77831C6.75624 1.44119 6.47952 1.15218 6.17414 0.916023C5.56923 0.448181 4.882 0.210938 4.13158 0.210938C3.12766 0.210938 2.20418 0.612923 1.53123 1.3428C0.86631 2.06416 0.500031 3.04963 0.500031 4.11782C0.500031 5.21725 0.909752 6.22366 1.7894 7.2851C2.57631 8.23457 3.70728 9.19843 5.01698 10.3145C5.4642 10.6957 5.97112 11.1277 6.49747 11.5879C6.63653 11.7097 6.81496 11.7768 7.00003 11.7768C7.18501 11.7768 7.36353 11.7097 7.50239 11.5881C8.02875 11.1278 8.53596 10.6956 8.98338 10.3142C10.2929 9.19833 11.4239 8.23457 12.2108 7.285C13.0904 6.22366 13.5 5.21725 13.5 4.11772C13.5 3.04963 13.1338 2.06416 12.4687 1.3428Z" fill="white"/>
</svg>
