<svg width="30" height="20" viewBox="0 0 30 20" fill="none" xmlns="http://www.w3.org/2000/svg">
<path d="M15.3487 14.4299C20.7837 14.4299 25.2054 10.0082 25.2054 4.57326V2.70605H16.4038V4.57326C16.4038 8.07179 13.5677 10.9079 10.0691 10.9079C9.08262 10.9079 8.14881 10.6823 7.31636 10.2801C9.10482 12.79 12.0388 14.4299 15.3487 14.4299Z" fill="#DACEA2"/>
<path d="M0 0.426758H3.73446V3.28243H0V0.426758Z" fill="#DACEA2"/>
<path d="M26.963 2.70605V4.57326C26.963 10.9774 21.7528 16.1875 15.3487 16.1875C9.10084 16.1875 3.99048 11.2284 3.74472 5.03972H0.00791168C0.254501 13.108 6.87187 19.5733 15 19.5733C23.2843 19.5733 30 12.8575 30 4.57326V2.70605H26.963Z" fill="#DACEA2"/>
</svg>
