<svg width="60" height="60" viewBox="0 0 60 60" fill="none" xmlns="http://www.w3.org/2000/svg">
<path d="M12.5215 8.2234H16.0371C16.0371 7.82813 16.0808 7.69945 16.1764 7.4175C16.3138 7.01238 16.5021 6.4575 16.5021 5.48215C16.5021 4.5068 16.3139 3.95191 16.1764 3.5468C16.0808 3.26484 16.0371 3.13617 16.0371 2.7409C16.0371 2.34574 16.0808 2.21707 16.1763 1.93523C16.3138 1.53012 16.502 0.975352 16.502 0H12.9864C12.9864 0.395156 12.9427 0.523828 12.8471 0.805664C12.7097 1.21078 12.5215 1.76555 12.5215 2.7409C12.5215 3.71625 12.7097 4.27113 12.8471 4.67625C12.9428 4.9582 12.9865 5.08688 12.9865 5.48215C12.9865 5.87742 12.9428 6.00609 12.8471 6.28805C12.7097 6.69316 12.5215 7.24805 12.5215 8.2234Z" fill="#D36C7A"/>
<path d="M18.9294 43.4097V39.8843H9.69902V43.4097C9.69902 48.1939 7.42007 52.7719 3.60269 55.6558L1.83902 56.9883V59.9995H26.7894V56.9883L25.0257 55.6558C21.2084 52.7719 18.9294 48.1939 18.9294 43.4097Z" fill="#D36C7A"/>
<path d="M9.61969 36.3687H19.0087L20.1212 30.885H22.6935V27.3694H18.668V12.3599H9.96047V27.3694H5.93484V30.885H8.50723L9.61969 36.3687Z" fill="#D36C7A"/>
<path d="M43.893 8.2234H47.4087C47.4087 7.82813 47.4524 7.69945 47.548 7.4175C47.6853 7.01238 47.8737 6.4575 47.8737 5.48215C47.8737 4.5068 47.6855 3.95191 47.548 3.5468C47.4524 3.26484 47.4087 3.13617 47.4087 2.7409C47.4087 2.34574 47.4524 2.21707 47.5479 1.93523C47.6853 1.53012 47.8735 0.975352 47.8735 0H44.3579C44.3579 0.395156 44.3142 0.523828 44.2187 0.805664C44.0812 1.21078 43.893 1.76555 43.893 2.7409C43.893 3.71625 44.0812 4.27113 44.2187 4.67625C44.3143 4.9582 44.358 5.08688 44.358 5.48215C44.358 5.87742 44.3143 6.00609 44.2187 6.28805C44.0814 6.69316 43.893 7.24805 43.893 8.2234Z" fill="#D36C7A"/>
<path d="M56.3973 55.6557C52.58 52.7719 50.3011 48.1938 50.3011 43.4096V39.8843H41.0707V43.4097C41.0707 48.1939 38.7917 52.7719 34.9744 55.6558L33.2107 56.9883V59.9995H58.1611V56.9883L56.3973 55.6557Z" fill="#D36C7A"/>
<path d="M40.9914 36.3687H50.3803L51.4929 30.885H54.0651V27.3694H50.0395V12.3599H41.3321V27.3694H37.3065V30.885H39.8788L40.9914 36.3687Z" fill="#D36C7A"/>
</svg>
