<svg width="60" height="46" viewBox="0 0 60 46" fill="none" xmlns="http://www.w3.org/2000/svg">
<path d="M3.51562 38.8203H17.6953V28.2734H3.51562V7.17969H0V45.8516H3.51562V38.8203Z" fill="#D36C7A"/>
<path d="M21.2109 24.7578V38.8203H49.4531V24.7578C49.4531 22.8161 47.8792 21.2422 45.9375 21.2422H24.7266C22.7849 21.2422 21.2109 22.8161 21.2109 24.7578Z" fill="#D36C7A"/>
<path d="M17.6953 19.4844C17.6953 16.5719 15.3343 14.2109 12.4219 14.2109C9.50941 14.2109 7.03125 16.5719 7.03125 19.4844C7.03125 22.3968 9.50941 24.7578 12.4219 24.7578C15.3343 24.7578 17.6953 22.3968 17.6953 19.4844Z" fill="#D36C7A"/>
<path d="M35.2734 10.6953C38.1859 10.6953 40.5469 8.33431 40.5469 5.42188C40.5469 2.50944 38.1859 0.148438 35.2734 0.148438C32.361 0.148438 30 2.50944 30 5.42188C30 8.33431 32.361 10.6953 35.2734 10.6953Z" fill="#D36C7A"/>
<path d="M56.4844 28.2734H52.9688V38.8203H56.4844V45.8516H60V31.7891C60 29.8474 58.4261 28.2734 56.4844 28.2734Z" fill="#D36C7A"/>
<path d="M26.7679 7.52686C25.5693 8.08713 24.7266 9.28467 24.7266 10.6951V17.7264H45.8203V10.6951C45.8203 9.28467 44.9776 8.08713 43.779 7.52686C42.8293 11.3541 39.3901 14.2108 35.2734 14.2108C31.1568 14.2108 27.7175 11.3541 26.7679 7.52686Z" fill="#D36C7A"/>
</svg>
