<svg width="22" height="28" viewBox="0 0 22 28" fill="none" xmlns="http://www.w3.org/2000/svg">
<path d="M16.3565 0.117344C16.4105 0.0676341 16.4812 0.0400391 16.5545 0.0400391C16.6279 0.0400391 16.6986 0.0676341 16.7526 0.117344C19.0602 2.23334 19.0904 5.90119 16.7526 8.04508C16.6986 8.09479 16.6279 8.12238 16.5545 8.12238C16.4812 8.12238 16.4105 8.09479 16.3565 8.04508C15.8071 7.54126 15.3684 6.92872 15.0683 6.24635C14.7682 5.56397 14.6132 4.82666 14.6132 4.08121C14.6132 3.33576 14.7682 2.59845 15.0683 1.91607C15.3684 1.2337 15.8071 0.621163 16.3565 0.117344ZM3.10584 11.4763C3.15981 11.526 3.23049 11.5535 3.30385 11.5535C3.37722 11.5535 3.4479 11.526 3.50187 11.4763C5.83976 9.33244 5.80941 5.66441 3.50187 3.54854C3.44791 3.49883 3.37722 3.47123 3.30385 3.47123C3.23049 3.47123 3.1598 3.49883 3.10584 3.54854C2.55643 4.05236 2.11776 4.6649 1.81767 5.34728C1.51757 6.02965 1.36261 6.76696 1.36261 7.5124C1.36261 8.25785 1.51757 8.99516 1.81767 9.67753C2.11776 10.3599 2.55643 10.9724 3.10584 11.4763ZM21.5884 11.0494C18.527 10.7253 16.5503 10.6255 13.8508 8.86645C13.8066 8.83751 13.7554 8.82107 13.7027 8.81888C13.6499 8.81668 13.5975 8.82881 13.5511 8.85397C13.5047 8.87914 13.4659 8.9164 13.4389 8.96181C13.4119 9.00722 13.3978 9.05908 13.3979 9.11189V27.6672C13.398 27.7449 13.429 27.8193 13.4839 27.8742C13.5388 27.9291 13.6132 27.9601 13.6909 27.9602H19.4182C19.4959 27.9601 19.5703 27.9291 19.6252 27.8742C19.6801 27.8193 19.711 27.7449 19.7112 27.6672V13.4828C19.7112 13.374 19.7544 13.2696 19.8313 13.1927C19.9082 13.1158 20.0126 13.0726 20.1213 13.0726C20.2301 13.0726 20.3345 13.1158 20.4114 13.1927C20.4883 13.2696 20.5315 13.374 20.5315 13.4828V15.4976C20.5315 16.0754 21.238 16.3844 21.6584 15.9639C21.7199 15.9028 21.7687 15.8302 21.8021 15.7501C21.8355 15.6701 21.8527 15.5843 21.8528 15.4976V11.341C21.853 11.2682 21.826 11.1979 21.7771 11.144C21.7281 11.09 21.6608 11.0563 21.5884 11.0494ZM8.33767 14.4806C5.27638 14.1565 3.29955 14.0567 0.600135 12.2977C0.555951 12.2688 0.504766 12.2524 0.452005 12.2502C0.399244 12.248 0.346874 12.2601 0.300448 12.2853C0.254022 12.3104 0.21527 12.3477 0.188301 12.3931C0.161333 12.4385 0.147152 12.4903 0.147263 12.5431V27.6672C0.147403 27.7449 0.178314 27.8193 0.233226 27.8743C0.288138 27.9292 0.362575 27.9601 0.440232 27.9602H6.16759C6.24525 27.9601 6.31968 27.9291 6.37458 27.8742C6.42949 27.8193 6.46041 27.7449 6.46056 27.6672V16.9139C6.46056 16.8051 6.50378 16.7008 6.5807 16.6239C6.65762 16.5469 6.76194 16.5037 6.87072 16.5037C6.9795 16.5037 7.08383 16.5469 7.16074 16.6239C7.23766 16.7008 7.28088 16.8051 7.28088 16.9139V18.9287C7.28088 19.5065 7.98728 19.8156 8.40781 19.395C8.4693 19.3339 8.51812 19.2613 8.55147 19.1813C8.58482 19.1013 8.60205 19.0154 8.60217 18.9287V14.7722C8.60235 14.6993 8.57533 14.6291 8.5264 14.5752C8.47747 14.5212 8.41017 14.4875 8.33767 14.4806Z" fill="#DACEA2"/>
</svg>
