<svg width="18" height="17" viewBox="0 0 18 17" fill="none" xmlns="http://www.w3.org/2000/svg">
<path fill-rule="evenodd" clip-rule="evenodd" d="M1.48177 2.81983C0.802734 3.97816 0.802734 5.53066 0.802734 8.639C0.802734 11.7465 0.802734 13.2998 1.48177 14.4582C1.93216 15.227 2.58264 15.8649 3.36675 16.3065C4.54804 16.9723 6.13132 16.9723 9.30128 16.9723C12.4704 16.9723 14.0545 16.9723 15.2358 16.3065C16.0199 15.8649 16.6704 15.227 17.1208 14.4582C17.7998 13.2998 17.7998 11.7473 17.7998 8.639C17.7998 5.5315 17.7998 3.97816 17.1208 2.81983C16.6704 2.05097 16.0199 1.41313 15.2358 0.971497C14.0545 0.305664 12.4712 0.305664 9.30128 0.305664C6.13217 0.305664 4.54804 0.305664 3.36675 0.971497C2.58264 1.41313 1.93216 2.05097 1.48177 2.81983ZM12.8639 15.2557C12.0166 15.3307 10.916 15.3323 9.30128 15.3323C7.68656 15.3323 6.58599 15.3307 5.73869 15.2557C4.91433 15.1832 4.49365 15.0507 4.19875 14.8848C3.67131 14.5877 3.23374 14.1587 2.93077 13.6415C2.7608 13.3523 2.62652 12.9398 2.55258 12.1315C2.4761 11.3007 2.4744 10.2215 2.4744 8.63816C2.4744 7.05483 2.4761 5.97566 2.55258 5.14483C2.62652 4.3365 2.76165 3.924 2.93077 3.63483C3.23374 3.11764 3.67131 2.68858 4.19875 2.3915C4.49365 2.22483 4.91433 2.09316 5.73869 2.02066C6.58599 1.94566 7.68656 1.944 9.30128 1.944C10.916 1.944 12.0166 1.94566 12.8639 2.02066C13.6882 2.09316 14.1089 2.22566 14.403 2.3915C14.9307 2.689 15.3684 3.11816 15.6718 3.63483C15.8409 3.924 15.976 4.3365 16.05 5.14483C16.1265 5.97566 16.1282 7.05483 16.1282 8.63816C16.1282 10.2215 16.1265 11.3007 16.05 12.1315C15.976 12.9398 15.8409 13.3523 15.6718 13.6407C15.3689 14.1581 14.9313 14.5875 14.4038 14.8848C14.1089 15.0507 13.6882 15.1832 12.8639 15.2557ZM12.5885 4.29316C12.5885 3.99601 12.7089 3.71103 12.9232 3.50091C13.1375 3.29079 13.4281 3.17275 13.7311 3.17275C14.0342 3.17275 14.3248 3.29079 14.5391 3.50091C14.7534 3.71103 14.8738 3.99601 14.8738 4.29316C14.8738 4.59021 14.7534 4.87508 14.5392 5.08512C14.325 5.29516 14.0345 5.41316 13.7316 5.41316C13.4286 5.41316 13.1381 5.29516 12.9239 5.08512C12.7097 4.87508 12.5894 4.59021 12.5894 4.29316H12.5885ZM9.30128 4.29316C8.71937 4.29316 8.14317 4.40555 7.60556 4.62391C7.06794 4.84226 6.57946 5.16231 6.16799 5.56579C5.75652 5.96926 5.43012 6.44825 5.20744 6.97541C4.98475 7.50256 4.87014 8.06757 4.87014 8.63816C4.87014 9.20876 4.98475 9.77376 5.20744 10.3009C5.43012 10.8281 5.75652 11.3071 6.16799 11.7105C6.57946 12.114 7.06794 12.4341 7.60556 12.6524C8.14317 12.8708 8.71937 12.9832 9.30128 12.9832C10.4766 12.9832 11.6038 12.5253 12.4349 11.7104C13.266 10.8955 13.7328 9.79022 13.7328 8.63775C13.7328 7.48527 13.266 6.38 12.4349 5.56507C11.6038 4.75015 10.4766 4.29316 9.30128 4.29316ZM6.65483 8.639C6.65483 8.29822 6.72329 7.96077 6.85628 7.64593C6.98928 7.33109 7.18421 7.04502 7.42996 6.80406C7.6757 6.56309 7.96745 6.37194 8.28853 6.24153C8.60961 6.11112 8.95374 6.044 9.30128 6.044C9.64882 6.044 9.99295 6.11112 10.314 6.24153C10.6351 6.37194 10.9269 6.56309 11.1726 6.80406C11.4183 7.04502 11.6133 7.33109 11.7463 7.64593C11.8793 7.96077 11.9477 8.29822 11.9477 8.639C11.9477 9.32723 11.6689 9.98728 11.1726 10.4739C10.6763 10.9606 10.0032 11.234 9.30128 11.234C8.5994 11.234 7.92627 10.9606 7.42996 10.4739C6.93365 9.98728 6.65483 9.32723 6.65483 8.639Z" fill="white"/>
</svg>
