<svg width="30" height="30" viewBox="0 0 30 30" fill="none" xmlns="http://www.w3.org/2000/svg">
<path d="M13.2741 25.658L12.6562 27.3047H17.3438L16.7259 25.658C16.701 25.591 16.6562 25.5333 16.5976 25.4925C16.539 25.4517 16.4692 25.4298 16.3978 25.4297H13.6031C13.5315 25.4296 13.4616 25.4514 13.4028 25.4922C13.344 25.533 13.299 25.5909 13.2741 25.658Z" fill="#DACEA2"/>
<path d="M16.875 1.23035C16.8749 1.16503 16.8567 1.10103 16.8224 1.04548C16.788 0.989931 16.7389 0.945037 16.6805 0.915816L15.157 0.154097C15.1082 0.129821 15.0545 0.117188 15 0.117188C14.9455 0.117188 14.8918 0.129821 14.843 0.154097L13.3195 0.915816C13.2611 0.945037 13.212 0.989931 13.1776 1.04548C13.1433 1.10103 13.1251 1.16503 13.125 1.23035V1.75769H16.875V1.23035Z" fill="#DACEA2"/>
<path d="M11.1675 4.33594H18.8325C18.9098 4.33571 18.985 4.30999 19.0462 4.26276C19.1074 4.21552 19.1514 4.14941 19.1713 4.07466C19.1911 3.99991 19.1858 3.9207 19.1561 3.84929C19.1263 3.77789 19.0739 3.71827 19.0069 3.67969L16.875 2.46094H13.125L10.9931 3.67969C10.9261 3.71827 10.8737 3.77789 10.8439 3.84929C10.8142 3.9207 10.8089 3.99991 10.8287 4.07466C10.8486 4.14941 10.8926 4.21552 10.9538 4.26276C11.015 4.30999 11.0902 4.33571 11.1675 4.33594Z" fill="#DACEA2"/>
<path d="M15.8203 7.85484V5.03906H14.1797V7.85484C14.168 8.88348 14.3041 9.90847 14.5837 10.8984H15.4162C15.6959 9.90847 15.832 8.88348 15.8203 7.85484Z" fill="#DACEA2"/>
<path d="M11.7188 5.03906V7.85484C11.7188 8.96462 12.1033 10.0401 12.8067 10.8984H13.8633C13.5982 9.9059 13.4681 8.88214 13.4766 7.85484V5.03906H11.7188Z" fill="#DACEA2"/>
<path d="M18.2813 5.03906H16.5234V7.85484C16.5319 8.88214 16.4018 9.9059 16.1367 10.8984H17.1933C17.8967 10.0401 18.2812 8.96462 18.2813 7.85484V5.03906Z" fill="#DACEA2"/>
<path d="M14.2969 13.7109H15.7031V24.7266H14.2969V13.7109Z" fill="#DACEA2"/>
<path d="M17.4483 12.4612L16.875 11.6016H13.125L12.5517 12.4612C12.5164 12.5142 12.4962 12.5756 12.4931 12.6392C12.49 12.7027 12.5042 12.7658 12.5342 12.8219C12.5641 12.878 12.6088 12.9249 12.6633 12.9577C12.7178 12.9904 12.7802 13.0077 12.8438 13.0078H17.1563C17.2198 13.0077 17.2822 12.9904 17.3367 12.9577C17.3913 12.9249 17.4359 12.878 17.4658 12.8219C17.4958 12.7658 17.51 12.7027 17.5069 12.6392C17.5038 12.5756 17.4836 12.5142 17.4483 12.4612Z" fill="#DACEA2"/>
<path d="M22.8398 9.13501C22.8639 9.04494 22.8512 8.94901 22.8045 8.86831C22.7578 8.78762 22.681 8.72877 22.5909 8.7047L20.7802 8.21907C20.7356 8.20709 20.689 8.20401 20.6432 8.21001C20.5975 8.21601 20.5533 8.23098 20.5133 8.25405C20.4733 8.27712 20.4382 8.30784 20.4101 8.34447C20.382 8.3811 20.3613 8.42291 20.3494 8.46751C20.3374 8.51208 20.3343 8.55857 20.3403 8.60433C20.3463 8.65008 20.3613 8.69421 20.3844 8.73417C20.4075 8.77414 20.4382 8.80916 20.4748 8.83724C20.5114 8.86532 20.5532 8.88591 20.5978 8.89782L22.4091 9.38298C22.4991 9.4072 22.595 9.39468 22.6758 9.34818C22.7566 9.30168 22.8156 9.225 22.8398 9.13501Z" fill="#DACEA2"/>
<path d="M20.2608 7.17153C20.2727 7.21612 20.2933 7.25792 20.3214 7.29454C20.3494 7.33116 20.3845 7.36189 20.4244 7.38497C20.4644 7.40804 20.5085 7.42301 20.5543 7.42901C20.6 7.43502 20.6465 7.43195 20.6911 7.41997L22.5023 6.93482C22.5469 6.9229 22.5887 6.90232 22.6253 6.87424C22.662 6.84616 22.6927 6.81113 22.7158 6.77117C22.7388 6.7312 22.7538 6.68708 22.7598 6.64132C22.7658 6.59556 22.7628 6.54907 22.7508 6.5045C22.7266 6.41453 22.6677 6.33782 22.587 6.29124C22.5063 6.24466 22.4105 6.23201 22.3205 6.25607L20.5092 6.74169C20.4646 6.7536 20.4228 6.77419 20.3862 6.80227C20.3496 6.83035 20.3189 6.86538 20.2958 6.90534C20.2727 6.94531 20.2577 6.98943 20.2517 7.03519C20.2457 7.08094 20.2488 7.12697 20.2608 7.17153Z" fill="#DACEA2"/>
<path d="M20.9494 11.3695C21.0156 11.4336 21.1044 11.4691 21.1966 11.4683C21.2888 11.4676 21.377 11.4307 21.4422 11.3655C21.5074 11.3003 21.5444 11.2122 21.5453 11.12C21.5461 11.0278 21.5107 10.939 21.4467 10.8727L20.1206 9.54705C20.0543 9.48298 19.9656 9.4475 19.8734 9.44825C19.7812 9.44901 19.693 9.48594 19.6278 9.5511C19.5626 9.61625 19.5256 9.70441 19.5247 9.79659C19.5239 9.88876 19.5593 9.97759 19.6233 10.0439L20.9494 11.3695Z" fill="#DACEA2"/>
<path d="M7.16016 9.13454C7.17212 9.17915 7.19276 9.22095 7.22088 9.25758C7.24901 9.29421 7.28407 9.32493 7.32408 9.348C7.36408 9.37107 7.40824 9.38604 7.45403 9.39204C7.49982 9.39804 7.54634 9.39496 7.59094 9.38298L9.40219 8.89782C9.44677 8.88591 9.48857 8.86532 9.52519 8.83724C9.56182 8.80916 9.59254 8.77414 9.61562 8.73417C9.63869 8.69421 9.65366 8.65008 9.65967 8.60433C9.66567 8.55857 9.6626 8.51208 9.65062 8.46751C9.63866 8.42291 9.61803 8.3811 9.5899 8.34447C9.56177 8.30784 9.52671 8.27712 9.4867 8.25405C9.4467 8.23098 9.40254 8.21601 9.35675 8.21001C9.31096 8.20401 9.26444 8.20709 9.21984 8.21907L7.40906 8.70423C7.319 8.7283 7.24218 8.78715 7.19551 8.86785C7.14883 8.94854 7.13611 9.04447 7.16016 9.13454Z" fill="#DACEA2"/>
<path d="M7.5 6.93333L9.31125 7.41849C9.35582 7.43046 9.40231 7.43354 9.44807 7.42753C9.49383 7.42152 9.53795 7.40655 9.57791 7.38348C9.61788 7.36041 9.65291 7.32968 9.68099 7.29306C9.70907 7.25643 9.72965 7.21463 9.74157 7.17005C9.75354 7.12548 9.75661 7.07899 9.75061 7.03323C9.7446 6.98748 9.72963 6.94335 9.70656 6.90339C9.68348 6.86342 9.65276 6.8284 9.61613 6.80032C9.57951 6.77224 9.53771 6.75165 9.49313 6.73974L7.68188 6.25411C7.59187 6.23005 7.496 6.24271 7.41531 6.28929C7.33463 6.33587 7.27573 6.41257 7.25157 6.50255C7.23952 6.54715 7.23639 6.59369 7.24236 6.6395C7.24834 6.68531 7.26329 6.72949 7.28637 6.76951C7.30945 6.80953 7.3402 6.8446 7.37686 6.87271C7.41352 6.90082 7.45537 6.92142 7.5 6.93333Z" fill="#DACEA2"/>
<path d="M8.55328 11.3695C8.58593 11.4022 8.6247 11.4281 8.66737 11.4458C8.71003 11.4635 8.75577 11.4726 8.80196 11.4726C8.84814 11.4726 8.89388 11.4635 8.93655 11.4458C8.97921 11.4281 9.01798 11.4022 9.05063 11.3695L10.3767 10.0439C10.4407 9.97759 10.4761 9.88876 10.4753 9.79659C10.4744 9.70441 10.4374 9.61625 10.3722 9.5511C10.307 9.48594 10.2188 9.44901 10.1266 9.44825C10.0344 9.4475 9.94565 9.48298 9.87938 9.54705L8.55328 10.8745C8.48791 10.9403 8.45121 11.0293 8.45121 11.122C8.45121 11.2148 8.48791 11.3038 8.55328 11.3695Z" fill="#DACEA2"/>
<path d="M22.1794 23.0295C22.2072 22.9916 22.223 22.9463 22.2248 22.8994C22.2265 22.8525 22.2141 22.8061 22.1892 22.7663C22.1643 22.7265 22.1281 22.6951 22.0851 22.6762C22.0421 22.6572 21.9945 22.6516 21.9483 22.6601C21.3855 22.7434 20.8559 22.9778 20.4159 23.3384C20.7666 23.7769 21.0339 24.2759 21.2048 24.8107C21.4341 24.1695 21.763 23.5683 22.1794 23.0295Z" fill="#DACEA2"/>
<path d="M18.9844 27.3049H20.8594C20.8594 24.0387 19.3256 22.8832 17.8955 22.6601C17.8493 22.6516 17.8016 22.6572 17.7587 22.6762C17.7157 22.6951 17.6794 22.7265 17.6545 22.7663C17.6296 22.8061 17.6172 22.8525 17.619 22.8994C17.6207 22.9463 17.6366 22.9916 17.6644 23.0295C18.6126 24.2451 19.0823 25.7663 18.9844 27.3049Z" fill="#DACEA2"/>
<path d="M29.5312 28.0078H0.46875C0.274587 28.0078 0.117188 28.1652 0.117188 28.3594V29.5312C0.117188 29.7254 0.274587 29.8828 0.46875 29.8828H29.5312C29.7254 29.8828 29.8828 29.7254 29.8828 29.5312V28.3594C29.8828 28.1652 29.7254 28.0078 29.5312 28.0078Z" fill="#DACEA2"/>
<path d="M28.7419 23.0295C28.7697 22.9916 28.7855 22.9463 28.7873 22.8994C28.789 22.8525 28.7766 22.8061 28.7517 22.7663C28.7268 22.7265 28.6906 22.6951 28.6476 22.6762C28.6046 22.6572 28.557 22.6516 28.5108 22.6601C27.948 22.7434 27.4184 22.9778 26.9784 23.3384C27.3291 23.7769 27.5964 24.2759 27.7673 24.8107C27.9966 24.1695 28.3255 23.5683 28.7419 23.0295Z" fill="#DACEA2"/>
<path d="M25.5469 27.3049H27.4219C27.4219 24.0387 25.8881 22.8832 24.458 22.6601C24.4118 22.6516 24.3641 22.6572 24.3212 22.6762C24.2782 22.6951 24.2419 22.7265 24.217 22.7663C24.1921 22.8061 24.1797 22.8525 24.1815 22.8994C24.1832 22.9463 24.1991 22.9916 24.2269 23.0295C25.1751 24.2451 25.6448 25.7663 25.5469 27.3049Z" fill="#DACEA2"/>
<path d="M12.3356 23.0295C12.3634 22.9916 12.3793 22.9463 12.381 22.8994C12.3828 22.8525 12.3704 22.8061 12.3455 22.7663C12.3206 22.7265 12.2843 22.6951 12.2413 22.6762C12.1984 22.6572 12.1507 22.6516 12.1045 22.6601C11.5418 22.7434 11.0122 22.9778 10.5722 23.3384C10.9228 23.7769 11.1902 24.2759 11.3611 24.8107C11.5903 24.1695 11.9192 23.5683 12.3356 23.0295Z" fill="#DACEA2"/>
<path d="M8.05172 22.6601C8.00553 22.6516 7.95787 22.6572 7.91491 22.6762C7.87194 22.6951 7.83566 22.7265 7.81075 22.7663C7.78585 22.8061 7.77348 22.8525 7.77523 22.8994C7.77699 22.9463 7.79281 22.9916 7.82062 23.0295C8.76888 24.2451 9.23852 25.7663 9.14062 27.3049H11.0156C11.0156 24.0387 9.48187 22.8832 8.05172 22.6601Z" fill="#DACEA2"/>
<path d="M5.77313 23.0295C5.80094 22.9916 5.81675 22.9463 5.81851 22.8994C5.82027 22.8525 5.8079 22.8061 5.783 22.7663C5.75809 22.7265 5.72181 22.6951 5.67884 22.6762C5.63588 22.6572 5.58822 22.6516 5.54203 22.6601C4.97929 22.7434 4.4497 22.9778 4.00969 23.3384C4.36031 23.7769 4.62769 24.2759 4.7986 24.8107C5.02784 24.1695 5.35672 23.5683 5.77313 23.0295Z" fill="#DACEA2"/>
<path d="M2.57812 27.3049H4.45312C4.45312 24.0387 2.91937 22.8832 1.48922 22.6601C1.44303 22.6516 1.39537 22.6572 1.35241 22.6762C1.30944 22.6951 1.27316 22.7265 1.24825 22.7663C1.22335 22.8061 1.21098 22.8525 1.21273 22.8994C1.21449 22.9463 1.23031 22.9916 1.25812 23.0295C2.20638 24.2451 2.67602 25.7663 2.57812 27.3049Z" fill="#DACEA2"/>
</svg>
