<svg width="60" height="54" viewBox="0 0 60 54" fill="none" xmlns="http://www.w3.org/2000/svg">
<path d="M55.2402 5.50525C52.1342 2.13657 47.8725 0.28125 43.239 0.28125C39.7755 0.28125 36.6037 1.37622 33.8113 3.53549C32.4023 4.62543 31.1256 5.95889 30 7.51529C28.8748 5.95935 27.5977 4.62543 26.1882 3.53549C23.3963 1.37622 20.2245 0.28125 16.761 0.28125C12.1275 0.28125 7.8653 2.13657 4.75937 5.50525C1.69052 8.83456 0 13.3829 0 18.313C0 23.3873 1.89102 28.0323 5.95093 32.9312C9.58282 37.3134 14.8027 41.762 20.8475 46.9132C22.9115 48.6724 25.2512 50.6664 27.6805 52.7904C28.3223 53.3525 29.1458 53.662 30 53.662C30.8537 53.662 31.6777 53.3525 32.3186 52.7913C34.7479 50.6668 37.0889 48.6719 39.1539 46.9118C45.1978 41.7615 50.4176 37.3134 54.0495 32.9308C58.1094 28.0323 60 23.3873 60 18.3126C60 13.3829 58.3095 8.83456 55.2402 5.50525Z" fill="#D36C7A"/>
</svg>
