<svg width="28" height="28" viewBox="0 0 28 28" fill="none" xmlns="http://www.w3.org/2000/svg">
<path d="M26.5 9.5H27.5V25.5H26.5V9.5Z" fill="#DACEA2"/>
<path d="M27.5225 5.97783C19.7025 5.70033 15.6075 1.77433 14.209 0.100332C14.1837 0.0692889 14.1519 0.0442655 14.1157 0.0270795C14.0796 0.00989346 14.04 0.000976562 14 0.000976562C13.96 0.000976563 13.9204 0.00989346 13.8843 0.0270795C13.8481 0.0442655 13.8163 0.0692889 13.791 0.100332C12.393 1.77383 8.3 5.70033 0.478 5.97783C0.349242 5.9835 0.227646 6.03867 0.138585 6.13183C0.0495233 6.225 -0.000124582 6.34895 2.34776e-07 6.47783V8.50033H28V6.47683C27.9999 6.3482 27.9502 6.22457 27.8613 6.13164C27.7723 6.03871 27.651 5.98362 27.5225 5.97783Z" fill="#DACEA2"/>
<path d="M0.5 9.5H1.5V25.5H0.5V9.5Z" fill="#DACEA2"/>
<path d="M2.5 12H25.5V13H2.5V12Z" fill="#DACEA2"/>
<path d="M26 26.5H28V28H26V26.5Z" fill="#DACEA2"/>
<path d="M0 26.5H2V28H0V26.5Z" fill="#DACEA2"/>
</svg>
