<svg width="60" height="60" viewBox="0 0 60 60" fill="none" xmlns="http://www.w3.org/2000/svg">
<path d="M37.6172 22.7344V1.75781C37.6172 0.787031 36.8302 0 35.8594 0H8.4375C7.46672 0 6.67969 0.787031 6.67969 1.75781V22.7344C6.67969 23.7052 7.46672 24.4922 8.4375 24.4922H35.8594C36.8302 24.4922 37.6172 23.7052 37.6172 22.7344ZM31.6406 17.1094C31.6406 18.0802 30.8536 18.8672 29.8828 18.8672H14.8828C13.912 18.8672 13.125 18.0802 13.125 17.1094V11.8993L12.373 10.3955C11.9388 9.52723 12.2909 8.47125 13.1591 8.03719C14.0272 7.60289 15.0832 7.95492 15.5175 8.82328L16.455 10.6983C16.5771 10.9424 16.6406 11.2114 16.6406 11.4844V15.3516H20.625V11.8595L19.1 8.44934C18.7037 7.56305 19.1009 6.52336 19.9871 6.12715C20.8734 5.73105 21.913 6.12797 22.3095 7.01426L23.9875 10.7667C24.0885 10.9925 24.1406 11.2371 24.1406 11.4844V15.3516H28.125V11.8454L25.9909 6.86883C25.6083 5.97656 26.0214 4.94309 26.9136 4.56047C27.8058 4.17773 28.8394 4.59105 29.2219 5.4832L31.4984 10.7916C31.5922 11.0105 31.6406 11.2462 31.6406 11.4844V17.1094Z" fill="#D36C7A"/>
<path d="M37.6172 28.0078H0.302344C0.107227 28.558 0 29.1493 0 29.7656V35.8594C0 38.7671 2.36566 41.1328 5.27344 41.1328H37.6172V28.0078Z" fill="#D36C7A"/>
<path d="M54.0234 31.0547H48.6328V29.7656C48.6328 29.1493 48.5256 28.558 48.3305 28.0078H41.1328V41.1328H43.3594C46.2671 41.1328 48.6328 38.7671 48.6328 35.8594V34.5703H54.0234C55.3804 34.5703 56.4844 35.6743 56.4844 37.0312V45.5859C56.4844 46.9429 55.3804 48.0469 54.0234 48.0469H34.2188C30.9233 48.0469 28.2422 50.728 28.2422 54.0234C28.2422 57.3189 30.9233 60 34.2188 60H45C45.9708 60 46.7578 59.213 46.7578 58.2422C46.7578 57.2714 45.9708 56.4844 45 56.4844H34.2188C32.8618 56.4844 31.7578 55.3804 31.7578 54.0234C31.7578 52.6665 32.8618 51.5625 34.2188 51.5625H54.0234C57.3189 51.5625 60 48.8814 60 45.5859V37.0312C60 33.7358 57.3189 31.0547 54.0234 31.0547Z" fill="#D36C7A"/>
</svg>
