<svg width="60" height="60" viewBox="0 0 60 60" fill="none" xmlns="http://www.w3.org/2000/svg">
<path d="M6.62625 36.7153C5.07985 34.2131 4.26247 31.3359 4.26247 28.3944V16.3898C4.26247 15.2148 3.30657 14.2588 2.13141 14.2588C0.956489 14.2588 0.000473022 15.2147 0.000473022 16.3898V36.1719C0.000473022 38.46 0.636332 40.6982 1.83914 42.6445C3.04219 44.5908 4.75969 46.1605 6.80625 47.1838L7.77797 47.6696V60.0002H12.0397V42.0219C9.8359 40.7204 7.97813 38.903 6.62625 36.7153Z" fill="#D36C7A"/>
<path d="M43.1498 22.1709V11.8526C43.1498 10.6777 42.1939 9.72168 41.0188 9.72168C39.8439 9.72168 38.8878 10.6776 38.8878 11.8526V23.211L39.0744 23.0823C40.3152 22.2392 41.7731 21.9552 43.1498 22.1709Z" fill="#D36C7A"/>
<path d="M56.6096 35.709L50.9272 39.632V15.7413C50.9272 14.5664 49.9713 13.6104 48.7963 13.6104C47.6212 13.6104 46.6654 14.5662 46.6654 15.7413V24.175C46.7742 24.3076 46.8789 24.4453 46.9771 24.5899C48.7402 27.1844 48.0638 30.7297 45.4695 32.4928L43.3761 33.9152C41.9466 34.8868 40.7381 36.1078 39.7847 37.544C38.8533 38.9472 37.6612 40.137 36.2992 41.0313L36.2699 59.9998H48.3114L48.343 48.6916L49.2758 48.198C50.5112 47.5445 51.5952 46.5498 52.4106 45.3214C53.6175 43.5035 55.1466 41.9586 56.9551 40.7293L59.0484 39.3068C60.0395 38.6332 60.2978 37.2788 59.6243 36.2877C58.952 35.2984 57.6005 35.039 56.6096 35.709Z" fill="#D36C7A"/>
<path d="M41.4001 31.0077L43.4934 29.5852C44.4845 28.9117 44.7429 27.5572 44.0694 26.5661C43.3971 25.5768 42.0464 25.3177 41.0556 25.9867L35.3722 29.91V25.1393V6.01969C35.3722 4.84465 34.4163 3.88863 33.2413 3.88863C32.0663 3.88863 31.1104 4.84453 31.1104 6.01969V17.3618H27.5947V2.13094C27.5948 0.955898 26.639 0 25.4639 0C24.289 0 23.333 0.955898 23.333 2.13094V15.4175H19.8173V2.13094C19.8173 0.955898 18.8615 0 17.6865 0C16.5115 0 15.5555 0.955898 15.5555 2.13094V17.3619H12.0398V8.61211C12.0398 7.43719 11.084 6.48117 9.90891 6.48117C8.73387 6.48117 7.77809 7.43719 7.77809 8.61211V28.3942C7.77809 30.6823 8.41395 32.9205 9.61676 34.8668C10.8197 36.8132 12.5372 38.3829 14.5838 39.4062L15.5555 39.892V60H32.7544L32.7867 38.9706L33.7209 38.4763C34.9565 37.8226 36.0404 36.828 36.8557 35.5998C38.0626 33.7818 39.5915 32.2368 41.4001 31.0077Z" fill="#D36C7A"/>
</svg>
