<svg width="1432" height="59" viewBox="0 0 1432 59" fill="none" xmlns="http://www.w3.org/2000/svg">
<g opacity="0.6">
<rect width="4" height="59" fill="#B2AD97"/>
<rect x="14" width="4" height="59" fill="#B2AD97"/>
<rect x="28" width="4" height="59" fill="#B2AD97"/>
<rect x="42" width="4" height="59" fill="#B2AD97"/>
<rect x="56" width="4" height="59" fill="#B2AD97"/>
<rect x="70" width="4" height="59" fill="#B2AD97"/>
<rect x="84" width="4" height="59" fill="#B2AD97"/>
<rect x="98" width="4" height="59" fill="#B2AD97"/>
<rect x="112" width="4" height="59" fill="#B2AD97"/>
<rect x="126" width="4" height="59" fill="#B2AD97"/>
<rect x="140" width="4" height="59" fill="#B2AD97"/>
<rect x="154" width="4" height="59" fill="#B2AD97"/>
<rect x="168" width="4" height="59" fill="#B2AD97"/>
<rect x="182" width="4" height="59" fill="#B2AD97"/>
<rect x="196" width="4" height="59" fill="#B2AD97"/>
<rect x="210" width="4" height="59" fill="#B2AD97"/>
<rect x="224" width="4" height="59" fill="#B2AD97"/>
<rect x="238" width="4" height="59" fill="#B2AD97"/>
<rect x="252" width="4" height="59" fill="#B2AD97"/>
<rect x="266" width="4" height="59" fill="#B2AD97"/>
<rect x="280" width="4" height="59" fill="#B2AD97"/>
<rect x="294" width="4" height="59" fill="#B2AD97"/>
<rect x="308" width="4" height="59" fill="#B2AD97"/>
<rect x="322" width="4" height="59" fill="#B2AD97"/>
<rect x="336" width="4" height="59" fill="#B2AD97"/>
<rect x="350" width="4" height="59" fill="#B2AD97"/>
<rect x="364" width="4" height="59" fill="#B2AD97"/>
<rect x="378" width="4" height="59" fill="#B2AD97"/>
<rect x="392" width="4" height="59" fill="#B2AD97"/>
<rect x="406" width="4" height="59" fill="#B2AD97"/>
<rect x="420" width="4" height="59" fill="#B2AD97"/>
<rect x="434" width="4" height="59" fill="#B2AD97"/>
<rect x="448" width="4" height="59" fill="#B2AD97"/>
<rect x="462" width="4" height="59" fill="#B2AD97"/>
<rect x="476" width="4" height="59" fill="#B2AD97"/>
<rect x="490" width="4" height="59" fill="#B2AD97"/>
<rect x="504" width="4" height="59" fill="#B2AD97"/>
<rect x="518" width="4" height="59" fill="#B2AD97"/>
<rect x="532" width="4" height="59" fill="#B2AD97"/>
<rect x="546" width="4" height="59" fill="#B2AD97"/>
<rect x="560" width="4" height="59" fill="#B2AD97"/>
<rect x="574" width="4" height="59" fill="#B2AD97"/>
<rect x="588" width="4" height="59" fill="#B2AD97"/>
<rect x="602" width="4" height="59" fill="#B2AD97"/>
<rect x="616" width="4" height="59" fill="#B2AD97"/>
<rect x="630" width="4" height="59" fill="#B2AD97"/>
<rect x="644" width="4" height="59" fill="#B2AD97"/>
<rect x="658" width="4" height="59" fill="#B2AD97"/>
<rect x="672" width="4" height="59" fill="#B2AD97"/>
<rect x="686" width="4" height="59" fill="#B2AD97"/>
<rect x="700" width="4" height="59" fill="#B2AD97"/>
<rect x="714" width="4" height="59" fill="#B2AD97"/>
<rect x="728" width="4" height="59" fill="#B2AD97"/>
<rect x="742" width="4" height="59" fill="#B2AD97"/>
<rect x="756" width="4" height="59" fill="#B2AD97"/>
<rect x="770" width="4" height="59" fill="#B2AD97"/>
<rect x="784" width="4" height="59" fill="#B2AD97"/>
<rect x="798" width="4" height="59" fill="#B2AD97"/>
<rect x="812" width="4" height="59" fill="#B2AD97"/>
<rect x="826" width="4" height="59" fill="#B2AD97"/>
<rect x="840" width="4" height="59" fill="#B2AD97"/>
<rect x="854" width="4" height="59" fill="#B2AD97"/>
<rect x="868" width="4" height="59" fill="#B2AD97"/>
<rect x="882" width="4" height="59" fill="#B2AD97"/>
<rect x="896" width="4" height="59" fill="#B2AD97"/>
<rect x="910" width="4" height="59" fill="#B2AD97"/>
<rect x="924" width="4" height="59" fill="#B2AD97"/>
<rect x="938" width="4" height="59" fill="#B2AD97"/>
<rect x="952" width="4" height="59" fill="#B2AD97"/>
<rect x="966" width="4" height="59" fill="#B2AD97"/>
<rect x="980" width="4" height="59" fill="#B2AD97"/>
<rect x="994" width="4" height="59" fill="#B2AD97"/>
<rect x="1008" width="4" height="59" fill="#B2AD97"/>
<rect x="1022" width="4" height="59" fill="#B2AD97"/>
<rect x="1036" width="4" height="59" fill="#B2AD97"/>
<rect x="1050" width="4" height="59" fill="#B2AD97"/>
<rect x="1064" width="4" height="59" fill="#B2AD97"/>
<rect x="1078" width="4" height="59" fill="#B2AD97"/>
<rect x="1092" width="4" height="59" fill="#B2AD97"/>
<rect x="1106" width="4" height="59" fill="#B2AD97"/>
<rect x="1120" width="4" height="59" fill="#B2AD97"/>
<rect x="1134" width="4" height="59" fill="#B2AD97"/>
<rect x="1148" width="4" height="59" fill="#B2AD97"/>
<rect x="1162" width="4" height="59" fill="#B2AD97"/>
<rect x="1176" width="4" height="59" fill="#B2AD97"/>
<rect x="1190" width="4" height="59" fill="#B2AD97"/>
<rect x="1204" width="4" height="59" fill="#B2AD97"/>
<rect x="1218" width="4" height="59" fill="#B2AD97"/>
<rect x="1232" width="4" height="59" fill="#B2AD97"/>
<rect x="1246" width="4" height="59" fill="#B2AD97"/>
<rect x="1260" width="4" height="59" fill="#B2AD97"/>
<rect x="1274" width="4" height="59" fill="#B2AD97"/>
<rect x="1288" width="4" height="59" fill="#B2AD97"/>
<rect x="1302" width="4" height="59" fill="#B2AD97"/>
<rect x="1316" width="4" height="59" fill="#B2AD97"/>
<rect x="1330" width="4" height="59" fill="#B2AD97"/>
<rect x="1344" width="4" height="59" fill="#B2AD97"/>
<rect x="1358" width="4" height="59" fill="#B2AD97"/>
<rect x="1372" width="4" height="59" fill="#B2AD97"/>
<rect x="1386" width="4" height="59" fill="#B2AD97"/>
<rect x="1400" width="4" height="59" fill="#B2AD97"/>
<rect x="1414" width="4" height="59" fill="#B2AD97"/>
<rect x="1428" width="4" height="59" fill="#B2AD97"/>
</g>
</svg>
