<svg width="134" height="50" viewBox="0 0 134 50" fill="none" xmlns="http://www.w3.org/2000/svg">
<path d="M94.9162 0.97003C95.3881 1.01894 97.3363 1.27296 97.8058 1.3437C96.0961 1.22405 92.8883 0.915427 91.1761 0.836609C89.3073 0.750195 87.4351 0.719807 85.5639 0.687045C84.9429 0.676125 84.3218 0.671377 83.7008 0.671377C83.0797 0.671377 82.4378 0.676125 81.8063 0.684671C80.6121 0.70034 79.4175 0.734051 78.2248 0.78628C76.8735 0.845631 75.5218 0.910204 74.1733 1.01609C72.596 1.13954 71.022 1.30524 69.4471 1.46146C66.7108 1.73304 63.9968 2.1599 61.3003 2.69215C57.132 3.51452 53.0283 4.58283 49.0071 5.96405C45.654 7.11593 42.3931 8.48147 39.2062 10.0331C36.6526 11.2762 34.1604 12.6232 31.7911 14.1872C29.0724 15.982 26.4875 17.9406 24.1325 20.2101C21.7148 22.5396 19.58 25.0874 17.7226 27.8735C16.2274 30.1165 14.9768 32.492 13.907 34.9648C13.1127 36.8004 12.4185 38.6721 11.8839 40.5983C11.4998 41.9815 11.1759 43.3812 10.8255 44.7738C10.5473 46.1004 10.2871 47.361 10.2548 47.5063L5.90607 47.1103C5.91746 46.9446 6.65389 43.9381 6.68522 43.8057C7.19042 41.6633 7.83473 39.5614 8.62671 37.5088C10.2069 33.4126 12.2666 29.5695 14.8158 25.9904C16.8518 23.1326 19.1669 20.5197 21.7527 18.149C25.0617 15.1155 28.7519 12.6303 32.7307 10.5564C35.7458 8.98524 38.823 7.5518 41.9862 6.30733C45.3245 4.99402 48.7479 3.94374 52.232 3.08672C56.0219 2.15467 59.8484 1.42015 63.7242 0.959584C65.8523 0.706512 67.9866 0.497597 70.1218 0.311948C71.3971 0.200843 72.6791 0.16001 73.9592 0.113004C75.3689 0.0607753 76.7795 0.0242151 78.1902 0.00664729C78.5301 0.00237403 78.8706 0 79.211 0C79.9365 0 80.6625 0.0104457 81.3875 0.0360853C83.2008 0.0997094 85.0131 0.188498 86.825 0.277762C89.5304 0.411183 92.2236 0.690369 94.9162 0.969555V0.97003ZM101.455 1.57873C101.408 1.51178 101.349 1.45576 101.283 1.40875C101.203 1.35225 101.113 1.31284 101.022 1.27818C100.937 1.24542 100.85 1.21883 100.761 1.19794C100.654 1.17277 100.546 1.14666 100.439 1.12054C100.357 1.1006 100.275 1.08161 100.193 1.05929C100.074 1.02701 99.9681 0.97003 99.8789 0.883615C99.858 0.863199 99.8371 0.843257 99.8181 0.821416C99.7758 0.772036 99.7355 0.720757 99.6937 0.670902C99.6391 0.605379 99.5911 0.535107 99.5322 0.472908C99.49 0.428276 99.4511 0.38127 99.4078 0.337588C99.3884 0.317646 99.3637 0.327617 99.3419 0.339012C99.32 0.350407 99.3086 0.371299 99.2934 0.389342C99.2488 0.443944 99.2488 0.452016 99.2792 0.51659C99.3077 0.57689 99.3267 0.640039 99.3371 0.707462C99.3485 0.781532 99.3532 0.855602 99.3599 0.929672C99.3627 0.963858 99.3694 0.998993 99.367 1.03175C99.3604 1.12292 99.3694 1.21408 99.3627 1.30524C99.3537 1.43344 99.3295 1.56021 99.3024 1.68509C99.2758 1.80949 99.2535 1.93579 99.2042 2.05449C99.1776 2.11906 99.1553 2.18601 99.1068 2.23871C99.0688 2.27955 99.0589 2.32133 99.0883 2.37071C99.1002 2.39113 99.1092 2.41344 99.1182 2.43528C99.132 2.46805 99.1581 2.47944 99.1861 2.4614C99.2493 2.42104 99.311 2.37878 99.3703 2.3332C99.4273 2.28904 99.4795 2.23919 99.5341 2.19266C99.5769 2.15657 99.6191 2.12001 99.6638 2.0863C99.7155 2.04737 99.7673 2.00796 99.8228 1.97567C99.942 1.90635 100.076 1.90635 100.208 1.8997C100.338 1.89305 100.468 1.89495 100.597 1.89068C100.681 1.88783 100.765 1.88356 100.849 1.87454C100.978 1.86077 101.106 1.84083 101.237 1.78385C101.306 1.76533 101.372 1.7169 101.437 1.66895C101.473 1.64236 101.48 1.61482 101.454 1.57826L101.455 1.57873Z" fill="#A67E2D"/>
<path d="M100.547 15.7608L106.438 9.03711H102.759L100.547 11.5607L98.3367 9.03711H94.6569L98.7075 13.6608L100.547 15.7608Z" fill="#A67E2D"/>
<path d="M86.551 9.03711H82.8513L92.7905 20.4263C93.552 19.8599 94.3706 19.3793 95.2442 18.9986L86.551 9.03758V9.03711Z" fill="#A67E2D"/>
<path d="M118.244 9.03711H114.544L105.928 18.9098C106.802 19.3015 107.602 19.8038 108.317 20.4116L118.243 9.03711H118.244Z" fill="#A67E2D"/>
<path d="M92.3765 9.03711H88.6768L96.8653 18.4202C97.8947 18.1263 98.9805 17.9516 100.112 17.9013L92.3769 9.03758L92.3765 9.03711Z" fill="#A67E2D"/>
<path d="M112.419 9.03711H108.719L100.996 17.8861C102.168 17.9013 103.277 18.0504 104.308 18.331L112.419 9.03711Z" fill="#A67E2D"/>
<path d="M100.8 20.7773C97.2869 20.7773 94.269 22.1828 92.2435 25.1176L94.7652 27.6801C96.4598 25.655 98.113 24.6627 100.387 24.6627C103.156 24.6627 104.727 26.1925 104.727 29.0029V30.3257H98.9815C94.3929 30.3257 91.4995 32.5991 91.4995 36.1131C91.4995 39.6272 94.3103 41.9827 98.5679 41.9827C101.338 41.9827 103.57 41.0321 105.058 39.2544V41.5278H109.109V29.2512C109.109 23.7947 105.802 20.7773 100.8 20.7773H100.8ZM104.727 33.8398C104.727 36.6088 102.412 38.6339 99.4776 38.6339C97.37 38.6339 95.9228 37.642 95.9228 35.9474C95.9228 34.2528 97.2043 33.4675 99.5189 33.4675H104.727V33.8398H104.727Z" fill="#4D626A"/>
<path d="M57.5214 20.7773C54.0083 20.7773 50.9904 22.1828 48.9649 25.1176L51.4866 27.6801C53.1811 25.655 54.8349 24.6627 57.1083 24.6627C59.8773 24.6627 61.4485 26.1925 61.4485 29.0029V30.3257H55.7028C51.1143 30.3257 48.2213 32.5991 48.2213 36.1131C48.2213 39.6272 51.0317 41.9827 55.2888 41.9827C58.0588 41.9827 60.2904 41.0321 61.7785 39.2544V41.5278H65.8295V29.2512C65.8295 23.7947 62.523 20.7773 57.5214 20.7773ZM61.4485 33.8398C61.4485 36.6088 59.1333 38.6339 56.1985 38.6339C54.0909 38.6339 52.6437 37.642 52.6437 35.9474C52.6437 34.2528 53.9252 33.4675 56.2398 33.4675H61.4485V33.8398Z" fill="#4D626A"/>
<path d="M80.5039 20.7779C77.693 20.7779 75.254 21.8529 73.7246 23.7127V10.5273H69.3844V41.5284H73.4355V38.7176C74.9648 40.8262 77.5691 41.9833 80.5447 41.9833C86.2078 41.9833 90.4649 37.3948 90.4649 31.4017C90.4649 25.4087 86.2491 20.7784 80.5034 20.7784L80.5039 20.7779ZM79.8007 38.0149C76.6186 38.0149 73.6838 35.8241 73.6838 31.4013C73.6838 26.9784 76.6186 24.7459 79.8007 24.7459C83.273 24.7459 86.0012 27.4741 86.0012 31.3595C86.0012 35.2448 83.3148 38.0149 79.8007 38.0149Z" fill="#4D626A"/>
<path d="M128.082 10.5273V23.7127C126.553 21.8529 124.114 20.7779 121.304 20.7779C115.682 20.654 111.259 25.4904 111.383 31.4013C111.383 37.3943 115.599 41.9828 121.304 41.9828C124.321 41.9828 126.925 40.7431 128.413 38.6345V41.5279H132.464V10.5273H128.082ZM122.048 38.0149C118.451 38.0149 115.806 35.2448 115.806 31.3595C115.806 27.4741 118.575 24.7459 122.048 24.7459C125.189 24.7459 128.165 27.0193 128.165 31.4013C128.165 35.7833 125.23 38.0149 122.048 38.0149Z" fill="#4D626A"/>
<path d="M14.3871 37.9742C14.3206 37.9742 14.257 37.9661 14.1905 37.9647C13.8116 38.9912 13.483 39.9883 13.2114 40.9669C13.1227 41.2855 13.04 41.6107 12.956 41.935C13.4147 41.9739 13.8785 41.991 14.3458 41.9839C19.4295 41.9839 23.7284 39.5448 26.0431 35.7008L22.7365 33.2617C20.7941 36.2791 17.9832 37.9742 14.3871 37.9742Z" fill="#4D626A"/>
<path d="M4.54955 27.8884C4.54955 22.1009 8.80715 17.8025 14.3871 17.8025C16.0978 17.8025 17.6286 18.1904 18.9751 18.9174C19.5762 18.3082 20.1906 17.7118 20.8221 17.133C21.2324 16.757 21.6497 16.3876 22.0732 16.0253C19.8844 14.6052 17.2264 13.7928 14.3462 13.7928C6.5746 13.6693 -0.16243 20.0759 0.00280307 27.8884C-0.10118 32.7955 2.51975 37.1476 6.4089 39.6754C6.69758 38.7742 7.00525 37.883 7.34094 37.0127C7.52422 36.5374 7.71604 36.0664 7.91261 35.5968C5.83533 33.7821 4.54955 31.062 4.54955 27.8884Z" fill="#4D626A"/>
<path d="M38.6298 20.7773C36.1916 20.7773 34.1248 21.6457 32.7602 23.2577V15.2012C32.6909 15.2468 32.6192 15.2914 32.5503 15.337C31.0495 16.3279 29.6801 17.3131 28.42 18.3078V41.5278H32.7602V29.4577C32.7602 26.6886 34.7031 24.7453 37.3896 24.7453C40.076 24.7453 41.8124 26.6473 41.8124 29.4577V41.5278H46.1526V28.8381C46.1526 24.043 43.2591 20.7773 38.6293 20.7773H38.6298Z" fill="#4D626A"/>
<path d="M33.206 48.1108C33.5071 48.55 33.8712 48.8311 34.3921 48.8311C34.8588 48.8311 35.1746 48.5841 35.1746 48.2C35.1746 47.8772 34.9818 47.7404 34.5084 47.5206L34.008 47.2879C33.349 46.9859 32.9515 46.636 32.9515 46.0325C32.9515 45.2918 33.5959 44.8047 34.3783 44.8047C35.0165 44.8047 35.5582 45.1276 35.8393 45.6142L35.3317 46.0055C35.091 45.6484 34.762 45.4566 34.3783 45.4566C33.9947 45.4566 33.6922 45.6484 33.6922 46.0055C33.7193 46.3616 33.8769 46.4238 34.3233 46.6498L34.8308 46.8834C35.5644 47.2196 35.9143 47.5757 35.9143 48.1725C35.9143 48.9611 35.27 49.483 34.3992 49.483C33.6585 49.483 33.0408 49.1126 32.6913 48.5025L33.206 48.1112V48.1108Z" fill="#A67E2D"/>
<path d="M36.8445 44.8799H38.4968C39.4089 44.8799 40.0338 45.4487 40.0338 46.2654C40.0338 47.082 39.4094 47.658 38.4968 47.658H37.5709V49.4067H36.8445V44.8799ZM38.483 47.0127C38.9977 47.0127 39.2859 46.7179 39.2859 46.2725C39.2859 45.8271 38.9977 45.5242 38.483 45.5242H37.5709V47.0122H38.483V47.0127Z" fill="#A67E2D"/>
<path d="M43.008 48.6525H40.971L40.6482 49.407H39.8728L41.8694 44.8047H42.1163L44.1119 49.407H43.3303L43.0075 48.6525H43.008ZM41.9928 46.156L41.2312 48.0291H42.7473L41.9928 46.156Z" fill="#A67E2D"/>
<path d="M46.8245 44.805C47.6539 44.805 48.3738 45.2095 48.765 45.8476L48.2161 46.2522C47.8942 45.7513 47.4275 45.4697 46.8306 45.4697C45.9048 45.4697 45.1982 46.1833 45.1982 47.1434C45.1982 48.1034 45.9048 48.8171 46.8306 48.8171C47.4275 48.8171 47.8942 48.536 48.2161 48.0346L48.765 48.4391C48.3809 49.0773 47.6682 49.4818 46.8245 49.4818C45.5349 49.5027 44.4167 48.4391 44.4438 47.1429C44.4167 45.8467 45.5344 44.7831 46.8245 44.804V44.805Z" fill="#A67E2D"/>
<path d="M49.632 44.8799H52.6085V45.5318H50.3589V46.6908H52.0535V47.3218H50.3589V48.7553H52.6907V49.4072H49.6324V44.8804L49.632 44.8799Z" fill="#A67E2D"/>
<path d="M58.4012 48.6525H56.3643L56.0414 49.407H55.2661L57.2626 44.8047H57.5095L59.5051 49.407H58.7236L58.4007 48.6525H58.4012ZM57.3861 46.156L56.6245 48.0291H58.1405L57.3861 46.156Z" fill="#A67E2D"/>
<path d="M63.9521 44.8802V49.4825H63.7052L60.948 46.3412V49.407H60.2216V44.8047H60.4751L63.2252 47.9322V44.8802H63.9526H63.9521Z" fill="#A67E2D"/>
<path d="M65.0941 44.8799H66.5137C67.9947 44.8799 68.9756 45.7986 68.9756 47.1362C68.9756 48.4737 67.9885 49.4067 66.5137 49.4067H65.0941V44.8799ZM66.5066 48.7548C67.5559 48.7548 68.2283 48.0825 68.2283 47.1362C68.2283 46.1899 67.5631 45.538 66.5066 45.538H65.8205V48.7548H66.5066Z" fill="#A67E2D"/>
<path d="M73.0518 45.5318H71.5296V44.8799H75.3091V45.5318H73.7792V49.4067H73.0518V45.5318Z" fill="#A67E2D"/>
<path d="M78.8302 49.4067L77.5411 47.658H76.7111V49.4067H75.9847V44.8799H77.637C78.5491 44.8799 79.174 45.4487 79.174 46.2654C79.174 46.8622 78.8449 47.328 78.3032 47.5407L79.6606 49.4067H78.8307H78.8302ZM76.7111 47.0127H77.6232C78.1242 47.0127 78.4261 46.7117 78.4261 46.2725C78.4261 45.8333 78.1242 45.5242 77.6232 45.5242H76.7111V47.0122V47.0127Z" fill="#A67E2D"/>
<path d="M80.3088 44.8799H83.2853V45.5318H81.0357V46.6908H82.7303V47.3218H81.0357V48.7553H83.3675V49.4072H80.3093V44.8804L80.3088 44.8799Z" fill="#A67E2D"/>
<path d="M86.9233 48.6525H84.8864L84.5635 49.407H83.7881L85.7847 44.8047H86.0316L88.0272 49.407H87.2457L86.9228 48.6525H86.9233ZM85.9082 46.156L85.1466 48.0291H86.6626L85.9082 46.156Z" fill="#A67E2D"/>
<path d="M88.9013 48.1108C89.2023 48.55 89.5665 48.8311 90.0874 48.8311C90.5541 48.8311 90.8698 48.5841 90.8698 48.2C90.8698 47.8772 90.6771 47.7404 90.2037 47.5206L89.7032 47.2879C89.0442 46.9859 88.6468 46.636 88.6468 46.0325C88.6468 45.2918 89.2911 44.8047 90.0736 44.8047C90.7117 44.8047 91.2535 45.1276 91.5346 45.6142L91.027 46.0055C90.7863 45.6484 90.4572 45.4566 90.0736 45.4566C89.6899 45.4566 89.3875 45.6484 89.3875 46.0055C89.4146 46.3616 89.5722 46.4238 90.0185 46.6498L90.5261 46.8834C91.2596 47.2196 91.6096 47.5757 91.6096 48.1725C91.6096 48.9611 90.9653 49.483 90.0945 49.483C89.3538 49.483 88.7361 49.1126 88.3866 48.5025L88.9013 48.1112V48.1108Z" fill="#A67E2D"/>
<path d="M92.4913 44.8799H93.2187V47.6238C93.2187 48.3916 93.6921 48.817 94.3573 48.817C95.0225 48.817 95.4821 48.3916 95.4821 47.6238V44.8799H96.2095V47.5749C96.2095 48.7681 95.4209 49.4822 94.3573 49.4822C93.2938 49.4822 92.4913 48.7686 92.4913 47.5749V44.8799Z" fill="#A67E2D"/>
<path d="M100.142 49.4067L98.8528 47.658H98.0228V49.4067H97.2964V44.8799H98.9487C99.8608 44.8799 100.486 45.4487 100.486 46.2654C100.486 46.8622 100.157 47.328 99.6149 47.5407L100.972 49.4067H100.142H100.142ZM98.0228 47.0127H98.9349C99.4359 47.0127 99.7379 46.7117 99.7379 46.2725C99.7379 45.8333 99.4359 45.5242 98.9349 45.5242H98.0228V47.0122V47.0127Z" fill="#A67E2D"/>
<path d="M101.62 44.8799H104.597V45.5318H102.347V46.6908H104.042V47.3218H102.347V48.7553H104.679V49.4072H101.621V44.8804L101.62 44.8799Z" fill="#A67E2D"/>
<path d="M109.778 44.805C110.608 44.805 111.327 45.2095 111.719 45.8476L111.17 46.2522C110.848 45.7513 110.381 45.4697 109.784 45.4697C108.858 45.4697 108.152 46.1833 108.152 47.1434C108.152 48.1034 108.858 48.8171 109.784 48.8171C110.381 48.8171 110.848 48.536 111.17 48.0346L111.719 48.4391C111.334 49.0773 110.622 49.4818 109.778 49.4818C108.489 49.5027 107.37 48.4391 107.397 47.1429C107.37 45.8467 108.488 44.7831 109.778 44.804V44.805Z" fill="#A67E2D"/>
<path d="M114.651 44.805C115.933 44.7841 117.058 45.8477 117.031 47.1439C117.058 48.4401 115.933 49.5037 114.651 49.4828C113.354 49.5037 112.25 48.4401 112.277 47.1439C112.257 45.8477 113.361 44.7841 114.651 44.805ZM114.658 45.4702C113.718 45.4702 113.031 46.1838 113.031 47.1368C113.031 48.0897 113.718 48.8176 114.658 48.8176C115.598 48.8176 116.283 48.1039 116.283 47.1368C116.283 46.1696 115.584 45.4702 114.658 45.4702Z" fill="#A67E2D"/>
<path d="M120.503 48.6525H118.466L118.143 49.407H117.368L119.364 44.8047H119.611L121.607 49.407H120.825L120.503 48.6525H120.503ZM119.488 46.156L118.726 48.0291H120.242L119.488 46.156Z" fill="#A67E2D"/>
<path d="M122.481 48.1108C122.782 48.55 123.146 48.8311 123.667 48.8311C124.134 48.8311 124.45 48.5841 124.45 48.2C124.45 47.8772 124.257 47.7404 123.783 47.5206L123.283 47.2879C122.624 46.9859 122.227 46.636 122.227 46.0325C122.227 45.2918 122.871 44.8047 123.653 44.8047C124.291 44.8047 124.833 45.1276 125.114 45.6142L124.607 46.0055C124.366 45.6484 124.037 45.4566 123.653 45.4566C123.27 45.4566 122.967 45.6484 122.967 46.0055C122.994 46.3616 123.152 46.4238 123.598 46.6498L124.106 46.8834C124.839 47.2196 125.189 47.5757 125.189 48.1725C125.189 48.9611 124.545 49.483 123.674 49.483C122.934 49.483 122.316 49.1126 121.966 48.5025L122.481 48.1112V48.1108Z" fill="#A67E2D"/>
<path d="M127.183 45.5318H125.661V44.8799H129.44V45.5318H127.911V49.4067H127.183V45.5318Z" fill="#A67E2D"/>
<path d="M130.307 48.1108C130.608 48.55 130.972 48.8311 131.493 48.8311C131.959 48.8311 132.275 48.5841 132.275 48.2C132.275 47.8772 132.083 47.7404 131.609 47.5206L131.109 47.2879C130.45 46.9859 130.052 46.636 130.052 46.0325C130.052 45.2918 130.697 44.8047 131.479 44.8047C132.117 44.8047 132.659 45.1276 132.94 45.6142L132.433 46.0055C132.192 45.6484 131.863 45.4566 131.479 45.4566C131.096 45.4566 130.793 45.6484 130.793 46.0055C130.82 46.3616 130.978 46.4238 131.424 46.6498L131.932 46.8834C132.665 47.2196 133.015 47.5757 133.015 48.1725C133.015 48.9611 132.371 49.483 131.5 49.483C130.759 49.483 130.142 49.1126 129.792 48.5025L130.307 48.1112V48.1108Z" fill="#A67E2D"/>
<path d="M17.7558 46.1409C18.5231 46.1409 19.1171 46.7292 19.1171 47.4965C19.1337 48.2975 18.4168 49.0087 17.5935 48.9921C16.8262 48.9921 16.2436 48.4095 16.2436 47.6366C16.2265 46.8356 16.9439 46.1243 17.7558 46.1409ZM17.7392 46.5388C17.1509 46.5388 16.6861 47.026 16.6861 47.637C16.6861 47.9172 16.7701 48.147 16.9439 48.326C17.1177 48.5054 17.3361 48.5947 17.6106 48.5947C18.2102 48.5947 18.6751 48.1076 18.6751 47.4965C18.6751 46.9585 18.2772 46.5383 17.7397 46.5383L17.7392 46.5388Z" fill="#A67E2D"/>
<path d="M21.6089 45.0929C21.4745 45.0706 21.3682 45.0597 21.2841 45.0597C20.9537 45.0597 20.7747 45.2221 20.7072 45.5748L20.5952 46.2021H21.2784L21.2053 46.5886H20.5273L20.0681 49.1938C19.9727 49.7147 19.6536 50.0005 19.1437 50.0005C19.0036 50.0005 18.8579 49.972 18.7012 49.9217L18.7629 49.5746C18.8693 49.6026 18.9813 49.614 19.0877 49.614C19.4295 49.614 19.5919 49.4346 19.6532 49.0932L20.0957 46.589H19.7092L19.7761 46.2025H20.1626L20.2913 45.4799C20.3863 44.959 20.7115 44.668 21.221 44.668C21.3777 44.668 21.5291 44.696 21.6692 44.7463L21.6075 45.0934L21.6089 45.0929Z" fill="#A67E2D"/>
<path d="M23.4174 48.0395C23.406 48.0955 23.4003 48.1463 23.4003 48.191C23.4003 48.4991 23.6244 48.6055 24.0109 48.6055C24.0503 48.6055 24.1339 48.5998 24.2687 48.5941L24.2013 48.964C24.095 48.9806 23.9943 48.992 23.8879 48.992C23.3557 48.992 22.9692 48.785 22.9692 48.2522C22.9692 48.1905 22.9749 48.1178 22.9915 48.0338L23.2436 46.5885H22.7954L22.8514 46.202H23.3163L23.4449 45.457H23.8765L23.7422 46.202H24.5992L24.5318 46.5885H23.6748L23.4169 48.0395H23.4174Z" fill="#A67E2D"/>
<path d="M27.383 47.34L27.1029 48.9311H26.6717L26.9576 47.3291C26.9747 47.2227 26.9856 47.1496 26.9856 47.0993C26.9856 46.746 26.7615 46.5338 26.3859 46.5338C25.9657 46.5338 25.6518 46.7968 25.5792 47.2056L25.2768 48.9311H24.8452L25.5792 44.7295H26.0103L25.7136 46.4326C25.932 46.2365 26.1898 46.1411 26.4866 46.1411C27.0411 46.1411 27.4162 46.4996 27.4162 47.0375C27.4162 47.1159 27.4048 47.217 27.3825 47.34H27.383Z" fill="#A67E2D"/>
<path d="M28.4798 47.6978C28.5078 48.2524 28.872 48.5942 29.4323 48.5942C29.729 48.5942 29.9978 48.4874 30.2727 48.2638L30.4911 48.5553C30.1944 48.8411 29.8022 48.9921 29.3934 48.9921C28.609 48.9921 28.0378 48.4319 28.0378 47.6532C28.0207 46.8413 28.7158 46.1238 29.5168 46.1409C30.2114 46.1409 30.6934 46.6281 30.6934 47.3512C30.6934 47.4742 30.6711 47.5919 30.626 47.6983H28.4803L28.4798 47.6978ZM30.2556 47.317C30.2499 46.8242 29.9641 46.5326 29.4935 46.5326C29.023 46.5326 28.6308 46.8408 28.5131 47.317H30.2556Z" fill="#A67E2D"/>
</svg>
