<svg width="137" height="60" viewBox="0 0 137 60" fill="none" xmlns="http://www.w3.org/2000/svg">
<path d="M98.3834 1.06796C98.8688 1.11826 100.872 1.37951 101.355 1.45227C99.5969 1.32921 96.2978 1.0118 94.5369 0.930739C92.6148 0.841864 90.6894 0.810611 88.7649 0.776917C88.1262 0.765685 87.4874 0.760802 86.8487 0.760802C86.21 0.760802 85.5498 0.765685 84.9003 0.774475C83.6722 0.79059 82.4436 0.825261 81.2169 0.878976C79.8271 0.940017 78.4369 1.00643 77.05 1.11533C75.4278 1.24229 73.809 1.41271 72.1892 1.57337C69.375 1.85269 66.5838 2.2917 63.8106 2.83911C59.5236 3.68488 55.303 4.78361 51.1674 6.20415C47.7189 7.38882 44.365 8.79324 41.0874 10.3891C38.4612 11.6675 35.898 13.0529 33.4613 14.6614C30.6651 16.5073 28.0067 18.5216 25.5846 20.8558C23.0981 23.2515 20.9026 25.8719 18.9922 28.7374C17.4545 31.0442 16.1683 33.4873 15.0681 36.0305C14.2511 37.9183 13.5372 39.8433 12.9873 41.8244C12.5923 43.2469 12.2592 44.6865 11.8988 46.1187C11.6127 47.4831 11.3451 48.7796 11.3119 48.929L6.83932 48.5218C6.85104 48.3514 7.60843 45.2593 7.64066 45.1231C8.16024 42.9197 8.8229 40.7579 9.63742 38.6469C11.2626 34.4341 13.3809 30.4816 16.0027 26.8007C18.0967 23.8614 20.4777 21.1742 23.1371 18.736C26.5403 15.6161 30.3355 13.0602 34.4277 10.9272C37.5285 9.31135 40.6933 7.8371 43.9466 6.5572C47.38 5.2065 50.9008 4.12633 54.4841 3.2449C58.3819 2.28633 62.3173 1.53089 66.3035 1.05721C68.4921 0.796938 70.6872 0.582076 72.8831 0.391141C74.1948 0.276873 75.5133 0.234878 76.8298 0.186534C78.2796 0.132818 79.7304 0.095217 81.1812 0.077149C81.5309 0.0727541 81.881 0.0703125 82.2311 0.0703125C82.9773 0.0703125 83.7239 0.0810556 84.4696 0.107425C86.3345 0.17286 88.1984 0.264177 90.0619 0.355982C92.8444 0.493201 95.6141 0.780335 98.3834 1.06747V1.06796ZM105.108 1.69399C105.06 1.62513 104.999 1.56751 104.931 1.51917C104.849 1.46106 104.757 1.42053 104.663 1.38488C104.575 1.35119 104.486 1.32384 104.395 1.30235C104.284 1.27647 104.174 1.24961 104.064 1.22276C103.979 1.20225 103.895 1.18271 103.811 1.15976C103.688 1.12656 103.579 1.06796 103.487 0.979083C103.466 0.958085 103.444 0.937575 103.425 0.915112C103.381 0.864327 103.34 0.811588 103.297 0.760314C103.241 0.692925 103.191 0.620653 103.131 0.556683C103.087 0.51078 103.047 0.462436 103.003 0.417511C102.983 0.397001 102.958 0.407256 102.935 0.418976C102.913 0.430695 102.901 0.452182 102.885 0.470738C102.839 0.526895 102.839 0.535197 102.871 0.601609C102.9 0.663626 102.919 0.728573 102.93 0.797915C102.942 0.874093 102.947 0.950272 102.954 1.02645C102.957 1.06161 102.963 1.09775 102.961 1.13144C102.954 1.2252 102.963 1.31896 102.957 1.41271C102.947 1.54456 102.922 1.67494 102.895 1.80337C102.867 1.93131 102.844 2.06121 102.793 2.18329C102.766 2.2497 102.743 2.31855 102.693 2.37276C102.654 2.41475 102.644 2.45773 102.674 2.50851C102.687 2.52951 102.696 2.55246 102.705 2.57492C102.719 2.60862 102.746 2.62034 102.775 2.60178C102.84 2.56027 102.903 2.51681 102.964 2.46993C103.023 2.42452 103.077 2.37325 103.133 2.32539C103.177 2.28828 103.22 2.25068 103.266 2.21601C103.319 2.17596 103.373 2.13543 103.43 2.10223C103.552 2.03093 103.691 2.03093 103.826 2.0241C103.96 2.01726 104.093 2.01921 104.226 2.01482C104.313 2.01189 104.399 2.00749 104.485 1.99821C104.618 1.98405 104.75 1.96354 104.884 1.90494C104.955 1.8859 105.023 1.83609 105.09 1.78677C105.127 1.75942 105.134 1.7311 105.108 1.6935L105.108 1.69399Z" fill="#191919"/>
<path d="M104.175 16.2794L110.233 9.36426H106.449L104.175 11.9597L101.901 9.36426H98.1166L102.283 14.1196L104.175 16.2794Z" fill="#191919"/>
<path d="M89.7801 9.36426H85.975L96.1971 21.0777C96.9804 20.4951 97.8223 20.0009 98.7208 19.6093L89.7801 9.36475V9.36426Z" fill="#191919"/>
<path d="M122.375 9.36426H118.57L109.709 19.518C110.608 19.9208 111.43 20.4375 112.166 21.0625L122.375 9.36426H122.375Z" fill="#191919"/>
<path d="M95.7713 9.36426H91.9663L100.388 19.0145C101.447 18.7122 102.563 18.5325 103.728 18.4808L95.7718 9.36475L95.7713 9.36426Z" fill="#191919"/>
<path d="M116.384 9.36426H112.579L104.636 18.4651C105.842 18.4808 106.982 18.6341 108.042 18.9227L116.384 9.36426Z" fill="#191919"/>
<path d="M104.435 21.4395C100.822 21.4395 97.7178 22.8849 95.6346 25.9032L98.2281 28.5387C99.9709 26.456 101.671 25.4354 104.01 25.4354C106.858 25.4354 108.473 27.0088 108.473 29.8992V31.2596H102.564C97.8452 31.2596 94.8694 33.5977 94.8694 37.2118C94.8694 40.8259 97.7603 43.2485 102.139 43.2485C104.988 43.2485 107.283 42.2709 108.813 40.4426V42.7807H112.98V30.1546C112.98 24.5428 109.579 21.4395 104.435 21.4395H104.435ZM108.473 34.8737C108.473 37.7216 106.093 39.8043 103.075 39.8043C100.907 39.8043 99.4186 38.7842 99.4186 37.0414C99.4186 35.2986 100.737 34.4909 103.117 34.4909H108.474V34.8737H108.473Z" fill="#D36C7A"/>
<path d="M59.9239 21.4395C56.3108 21.4395 53.207 22.8849 51.1238 25.9032L53.7173 28.5387C55.4602 26.456 57.161 25.4354 59.4991 25.4354C62.347 25.4354 63.9629 27.0088 63.9629 29.8992V31.2596H58.0537C53.3345 31.2596 50.3591 33.5977 50.3591 37.2118C50.3591 40.8259 53.2495 43.2485 57.6278 43.2485C60.4767 43.2485 62.7718 42.2709 64.3022 40.4426V42.7807H68.4686V30.1546C68.4686 24.5428 65.0679 21.4395 59.9239 21.4395ZM63.9629 34.8737C63.9629 37.7216 61.5818 39.8043 58.5635 39.8043C56.3958 39.8043 54.9074 38.7842 54.9074 37.0414C54.9074 35.2986 56.2254 34.4909 58.6059 34.4909H63.9629V34.8737Z" fill="#D36C7A"/>
<path d="M83.5608 21.4389C80.6699 21.4389 78.1614 22.5445 76.5885 24.4572V10.8965H72.1247V42.7801H76.2911V39.8892C77.864 42.0579 80.5425 43.2479 83.6028 43.2479C89.427 43.2479 93.8053 38.5288 93.8053 32.3651C93.8053 26.2015 89.4695 21.4394 83.5603 21.4394L83.5608 21.4389ZM82.8376 39.1665C79.5648 39.1665 76.5465 36.9134 76.5465 32.3647C76.5465 27.8159 79.5648 25.5198 82.8376 25.5198C86.4087 25.5198 89.2146 28.3257 89.2146 32.3217C89.2146 36.3176 86.4517 39.1665 82.8376 39.1665Z" fill="#D36C7A"/>
<path d="M132.493 10.8965V24.4572C130.92 22.5445 128.412 21.4389 125.522 21.4389C119.74 21.3115 115.191 26.2855 115.319 32.3647C115.319 38.5283 119.655 43.2474 125.522 43.2474C128.625 43.2474 131.303 41.9724 132.834 39.8038V42.7796H137V10.8965H132.493ZM126.287 39.1665C122.589 39.1665 119.868 36.3176 119.868 32.3217C119.868 28.3257 122.716 25.5198 126.287 25.5198C129.518 25.5198 132.578 27.8579 132.578 32.3647C132.578 36.8714 129.56 39.1665 126.287 39.1665Z" fill="#D36C7A"/>
<path d="M15.5617 39.1249C15.4933 39.1249 15.4279 39.1166 15.3595 39.1152C14.9698 40.1709 14.6319 41.1964 14.3526 42.2028C14.2613 42.5305 14.1763 42.865 14.0899 43.1985C14.5616 43.2386 15.0387 43.2561 15.5192 43.2488C20.7477 43.2488 25.169 40.7403 27.5495 36.7868L24.1489 34.2783C22.1511 37.3816 19.2602 39.1249 15.5617 39.1249Z" fill="#D36C7A"/>
<path d="M5.44415 28.7526C5.44415 22.8004 9.82295 18.3796 15.5617 18.3796C17.3212 18.3796 18.8955 18.7786 20.2804 19.5262C20.8986 18.8997 21.5305 18.2863 22.18 17.6911C22.6019 17.3043 23.0311 16.9244 23.4667 16.5518C21.2155 15.0912 18.4819 14.2557 15.5197 14.2557C7.52685 14.1287 0.598027 20.7177 0.767964 28.7526C0.661021 33.7994 3.35657 38.2754 7.35643 40.8752C7.65333 39.9484 7.96976 39.0318 8.31501 38.1367C8.5035 37.6479 8.70078 37.1635 8.90295 36.6805C6.76653 34.8141 5.44415 32.0165 5.44415 28.7526Z" fill="#D36C7A"/>
<path d="M40.4946 21.44C37.987 21.44 35.8613 22.3331 34.4579 23.991V15.7051C34.3866 15.752 34.3129 15.7979 34.2421 15.8447C32.6985 16.8639 31.2902 17.8771 29.9941 18.9002V42.7812H34.4579V30.3675C34.4579 27.5196 36.4561 25.5209 39.2191 25.5209C41.982 25.5209 43.7678 27.4771 43.7678 30.3675V42.7812H48.2316V29.7302C48.2316 24.7986 45.2557 21.44 40.4941 21.44H40.4946Z" fill="#D36C7A"/>
<path d="M55.3149 57.3546C55.0618 57.583 54.7902 57.7528 54.5001 57.8639C54.2161 57.9688 53.9137 58.0213 53.5927 58.0213C53.1482 58.0213 52.8025 57.9164 52.5556 57.7065C52.3087 57.4904 52.1852 57.2065 52.1852 56.8546C52.1852 56.5274 52.2624 56.2527 52.4167 56.0305C52.5772 55.8021 52.7871 55.6169 53.0463 55.4749C53.3056 55.3268 53.5927 55.2187 53.9075 55.1508C54.2285 55.0768 54.5433 55.0305 54.852 55.0119L55.5835 54.9564C55.7008 54.944 55.7656 54.8916 55.7779 54.799L55.815 54.549C55.8211 54.5119 55.8242 54.478 55.8242 54.4471C55.8304 54.4162 55.8335 54.3823 55.8335 54.3452C55.8335 54.0736 55.744 53.8637 55.565 53.7156C55.3921 53.5613 55.1514 53.4841 54.8427 53.4841C54.5711 53.4841 54.3118 53.5458 54.0649 53.6693C53.8241 53.7928 53.5988 53.9841 53.3889 54.2434C53.3704 54.2681 53.3519 54.2835 53.3334 54.2897C53.321 54.2897 53.2963 54.2835 53.2593 54.2712L52.7871 54.1045C52.7624 54.0921 52.7439 54.0736 52.7315 54.0489C52.7253 54.0242 52.7377 53.981 52.7685 53.9193C52.9908 53.6168 53.2809 53.3761 53.639 53.197C54.0032 53.018 54.4229 52.9285 54.8983 52.9285C55.2748 52.9285 55.5866 52.9841 55.8335 53.0952C56.0866 53.2001 56.2749 53.3514 56.3983 53.5489C56.5218 53.7465 56.5835 53.981 56.5835 54.2526C56.5835 54.2959 56.5804 54.3422 56.5742 54.3915C56.5742 54.4348 56.5712 54.481 56.565 54.5304L56.1113 57.8176C56.0989 57.867 56.0866 57.8978 56.0742 57.9102C56.0619 57.9225 56.031 57.9287 55.9816 57.9287H55.5187C55.4754 57.9287 55.4446 57.9164 55.4261 57.8917C55.4075 57.8608 55.3983 57.8238 55.3983 57.7806L55.4446 57.3361C55.4384 57.2558 55.3952 57.262 55.3149 57.3546ZM55.6668 55.549C55.6792 55.4996 55.6761 55.4657 55.6575 55.4471C55.6452 55.4286 55.6174 55.4224 55.5742 55.4286L54.9353 55.4842C54.7501 55.4965 54.5433 55.5243 54.3149 55.5675C54.0927 55.6107 53.8797 55.6786 53.676 55.7712C53.4723 55.8576 53.3025 55.9811 53.1667 56.1416C53.0371 56.2959 52.9723 56.4966 52.9723 56.7435C52.9723 56.9595 53.0525 57.1324 53.213 57.262C53.3735 57.3855 53.5957 57.4472 53.8797 57.4472C54.0896 57.4472 54.2902 57.4102 54.4816 57.3361C54.6791 57.262 54.855 57.1694 55.0094 57.0583C55.1699 56.941 55.2995 56.8206 55.3983 56.6972C55.497 56.5675 55.5526 56.4441 55.565 56.3268L55.6668 55.549ZM58.9276 57.9287C58.5881 57.9287 58.3319 57.8608 58.1591 57.725C57.9924 57.583 57.9091 57.367 57.9091 57.0768C57.9091 57.0274 57.9091 56.9781 57.9091 56.9287C57.9153 56.8731 57.9214 56.8206 57.9276 56.7713L58.3628 53.6785C58.369 53.6477 58.3628 53.6292 58.3443 53.623C58.3319 53.6106 58.3103 53.6045 58.2795 53.6045H57.5202C57.4708 53.6045 57.4492 53.5643 57.4554 53.4841L57.5109 53.0859C57.5171 53.0551 57.5233 53.0365 57.5294 53.0304C57.5418 53.0242 57.5634 53.0211 57.5943 53.0211H58.3813C58.406 53.0211 58.4276 53.0119 58.4461 52.9933C58.4647 52.9686 58.4739 52.944 58.4739 52.9193L58.7887 51.447C58.8011 51.3853 58.8412 51.3544 58.9091 51.3544H59.3814C59.4184 51.3544 59.4431 51.3667 59.4554 51.3914C59.4678 51.4099 59.4709 51.447 59.4647 51.5025L59.2517 52.947C59.2456 52.9717 59.2486 52.9903 59.261 53.0026C59.2733 53.0149 59.2918 53.0211 59.3165 53.0211H60.474C60.5049 53.0211 60.5295 53.0304 60.5481 53.0489C60.5728 53.0612 60.582 53.0798 60.5758 53.1045L60.5203 53.5211C60.5141 53.552 60.5049 53.5736 60.4925 53.586C60.4802 53.5983 60.4555 53.6045 60.4184 53.6045H59.2425C59.1869 53.6045 59.1499 53.6384 59.1313 53.7063L58.7239 56.6324C58.7178 56.6817 58.7116 56.728 58.7054 56.7713C58.7054 56.8145 58.7054 56.8546 58.7054 56.8916C58.7054 57.0768 58.7455 57.2003 58.8258 57.262C58.9122 57.3176 59.0388 57.3454 59.2054 57.3454H59.8443C59.8752 57.3454 59.8999 57.3577 59.9184 57.3824C59.9369 57.4071 59.9462 57.4349 59.9462 57.4657L59.8906 57.7806C59.8845 57.8423 59.8536 57.8793 59.798 57.8917C59.7301 57.904 59.6406 57.9133 59.5295 57.9195C59.4184 57.9195 59.3073 57.9225 59.1962 57.9287C59.0851 57.9287 58.9955 57.9287 58.9276 57.9287ZM66.0078 50.9655C66.335 50.9655 66.6437 51.018 66.9338 51.1229C67.2301 51.2217 67.4956 51.3606 67.7301 51.5396C67.9647 51.7186 68.1561 51.9254 68.3042 52.16C68.4586 52.3884 68.5573 52.6384 68.6005 52.91C68.6129 52.9779 68.6129 53.0242 68.6005 53.0489C68.5882 53.0674 68.5604 53.0798 68.5172 53.0859L67.6561 53.1415C67.619 53.1477 67.5943 53.1415 67.582 53.123C67.5696 53.1045 67.5573 53.0767 67.5449 53.0396C67.4647 52.6693 67.2949 52.3668 67.0357 52.1322C66.7764 51.8976 66.4461 51.7803 66.0449 51.7803C65.4584 51.7803 65.0047 52.0026 64.6837 52.447C64.3689 52.8915 64.2115 53.5705 64.2115 54.4841C64.2115 55.3854 64.3658 56.0583 64.6745 56.5027C64.9893 56.9472 65.4584 57.1694 66.0819 57.1694C66.4955 57.1694 66.8412 57.0707 67.119 56.8731C67.403 56.6694 67.6344 56.3391 67.8135 55.8823C67.832 55.8391 67.8783 55.8237 67.9524 55.836L68.6098 55.9935C68.6283 55.9996 68.6468 56.012 68.6653 56.0305C68.6839 56.049 68.687 56.0891 68.6746 56.1509C68.6314 56.3114 68.5604 56.478 68.4616 56.6509C68.3629 56.8237 68.2394 56.9935 68.0913 57.1602C67.9431 57.3207 67.7672 57.4657 67.5635 57.5954C67.3597 57.725 67.1283 57.8299 66.869 57.9102C66.6159 57.9843 66.3381 58.0213 66.0356 58.0213C65.4121 58.0213 64.8751 57.8762 64.4244 57.5861C63.98 57.296 63.6374 56.8855 63.3966 56.3546C63.1559 55.8237 63.0355 55.1971 63.0355 54.4749C63.0355 53.7465 63.1559 53.1199 63.3966 52.5952C63.6374 52.0705 63.98 51.6692 64.4244 51.3914C64.8689 51.1075 65.3967 50.9655 66.0078 50.9655ZM71.1184 54.799C71.0566 54.799 71.0258 54.8298 71.0258 54.8916V57.7713C71.0258 57.8762 70.9671 57.9287 70.8498 57.9287H70.0628C70.001 57.9287 69.9578 57.9164 69.9331 57.8917C69.9146 57.867 69.9053 57.8299 69.9053 57.7806V51.197C69.9053 51.1044 69.9486 51.0581 70.035 51.0581H70.9054C70.9856 51.0581 71.0258 51.1044 71.0258 51.197V53.7989C71.0258 53.8853 71.0659 53.9286 71.1461 53.9286H73.8962C73.9703 53.9286 74.0074 53.8884 74.0074 53.8082V51.1877C74.0074 51.1013 74.0444 51.0581 74.1185 51.0581H75.0074C75.0876 51.0581 75.1278 51.1044 75.1278 51.197V57.7806C75.1278 57.8299 75.1154 57.867 75.0907 57.8917C75.0722 57.9164 75.0321 57.9287 74.9704 57.9287H74.1925C74.0691 57.9287 74.0074 57.8762 74.0074 57.7713V54.9008C74.0074 54.8329 73.9734 54.799 73.9055 54.799H71.1184ZM76.7596 51.197C76.7596 51.1044 76.8028 51.0581 76.8893 51.0581H81.2042C81.2783 51.0581 81.3154 51.0982 81.3154 51.1785L81.3061 51.7618C81.3061 51.8544 81.2598 51.9007 81.1672 51.9007H78.0189C77.9263 51.9007 77.88 51.9408 77.88 52.0211V53.9286C77.88 54.0088 77.9202 54.0489 78.0004 54.0489H80.2598C80.34 54.0489 80.3801 54.086 80.3801 54.16V54.7804C80.3801 54.8113 80.3709 54.836 80.3524 54.8545C80.34 54.873 80.3091 54.8823 80.2598 54.8823H77.9912C77.9171 54.8823 77.88 54.9163 77.88 54.9842V56.9842C77.88 57.0521 77.9109 57.0861 77.9726 57.0861H81.2968C81.3833 57.0861 81.4265 57.1231 81.4265 57.1972V57.8083C81.4265 57.8454 81.4172 57.8762 81.3987 57.9009C81.3802 57.9195 81.3462 57.9287 81.2968 57.9287H76.917C76.8121 57.9287 76.7596 57.8793 76.7596 57.7806V51.197ZM86.4428 52.447C86.2823 52.268 86.0848 52.1137 85.8502 51.984C85.6156 51.8544 85.31 51.7896 84.9335 51.7896C84.4952 51.7896 84.1526 51.8822 83.9057 52.0674C83.6649 52.2464 83.5445 52.4964 83.5445 52.8174C83.5445 52.9038 83.5661 53.0057 83.6094 53.123C83.6526 53.2403 83.739 53.3545 83.8686 53.4656C84.0044 53.5705 84.1989 53.6693 84.452 53.7619L85.8409 54.1971C86.4027 54.3699 86.8039 54.6169 87.0447 54.9379C87.2916 55.2527 87.4151 55.6231 87.4151 56.049C87.4151 56.4564 87.3101 56.8083 87.1002 57.1046C86.8965 57.4009 86.6033 57.6293 86.2206 57.7898C85.844 57.9441 85.3934 58.0213 84.8687 58.0213C84.4798 58.0213 84.1186 57.9781 83.7853 57.8917C83.4581 57.7991 83.1649 57.6664 82.9056 57.4935C82.6525 57.3145 82.4396 57.0984 82.2667 56.8453C82.242 56.8021 82.2328 56.762 82.2389 56.725C82.2451 56.6879 82.2729 56.6509 82.3223 56.6138L82.776 56.299C82.8439 56.2558 82.8964 56.2373 82.9334 56.2435C82.9704 56.2496 83.0044 56.2712 83.0353 56.3083C83.1896 56.5058 83.3439 56.6725 83.4982 56.8083C83.6587 56.9441 83.8408 57.046 84.0446 57.1139C84.2544 57.1756 84.5075 57.2065 84.8038 57.2065C85.2668 57.2065 85.6372 57.1262 85.915 56.9657C86.199 56.799 86.3409 56.5367 86.3409 56.1786C86.3409 56.0367 86.3132 55.9101 86.2576 55.799C86.202 55.6817 86.1064 55.5768 85.9706 55.4842C85.8347 55.3854 85.6372 55.2897 85.3779 55.1971L83.9797 54.7434C83.6279 54.6261 83.3408 54.4749 83.1186 54.2897C82.9025 54.1045 82.742 53.8946 82.6371 53.66C82.5321 53.4255 82.4797 53.1847 82.4797 52.9378C82.4797 52.5427 82.5815 52.197 82.7852 51.9007C82.989 51.6044 83.2729 51.376 83.6371 51.2155C84.0013 51.0488 84.4273 50.9655 84.915 50.9655C85.2421 50.9655 85.5415 51.0056 85.8131 51.0859C86.0909 51.1599 86.344 51.268 86.5724 51.4099C86.8008 51.5458 86.9953 51.7093 87.1558 51.9007C87.1805 51.9316 87.1959 51.9624 87.2021 51.9933C87.2144 52.0242 87.199 52.0581 87.1558 52.0952L86.628 52.5026C86.5909 52.5273 86.5601 52.5365 86.5354 52.5304C86.5169 52.518 86.486 52.4902 86.4428 52.447ZM88.0703 51.1877C88.0703 51.1445 88.0796 51.1136 88.0981 51.0951C88.1228 51.0704 88.1598 51.0581 88.2092 51.0581H93.2927C93.3421 51.0581 93.3761 51.0704 93.3946 51.0951C93.4131 51.1136 93.4224 51.1445 93.4224 51.1877V51.7803C93.4224 51.8544 93.3792 51.8914 93.2927 51.8914H91.4593C91.3914 51.8914 91.3575 51.9192 91.3575 51.9748V57.7898C91.3575 57.8824 91.3173 57.9287 91.2371 57.9287H90.3667C90.2864 57.9287 90.2463 57.8855 90.2463 57.7991V51.9933C90.2463 51.9254 90.2124 51.8914 90.1445 51.8914H88.1999C88.1135 51.8914 88.0703 51.8544 88.0703 51.7803V51.1877ZM99.8786 51.0581C99.9465 51.0581 99.9805 51.0982 99.9805 51.1785V57.8083C99.9805 57.8454 99.9681 57.8762 99.9435 57.9009C99.9188 57.9195 99.8848 57.9287 99.8416 57.9287H99.2397C99.1965 57.9287 99.1595 57.9256 99.1286 57.9195C99.0977 57.9071 99.0669 57.8793 99.036 57.8361L95.6563 52.9841C95.6254 52.9409 95.6007 52.9223 95.5822 52.9285C95.5637 52.9347 95.5544 52.9563 95.5544 52.9933V57.7991C95.5544 57.8855 95.505 57.9287 95.4062 57.9287H94.7488C94.65 57.9287 94.6007 57.8855 94.6007 57.7991V51.197C94.6007 51.1044 94.647 51.0581 94.7395 51.0581H95.4618C95.5112 51.0581 95.5482 51.0643 95.5729 51.0766C95.6038 51.0889 95.6346 51.1198 95.6655 51.1692L98.9064 55.8638C98.9434 55.9132 98.9743 55.9348 98.999 55.9286C99.0298 55.9163 99.0453 55.8885 99.0453 55.8453V51.1877C99.0453 51.1013 99.0885 51.0581 99.1749 51.0581H99.8786ZM106.655 55.5583C106.655 56.1385 106.556 56.6108 106.359 56.975C106.161 57.3392 105.871 57.6046 105.488 57.7713C105.106 57.938 104.64 58.0213 104.09 58.0213C103.485 58.0213 102.995 57.9256 102.618 57.7343C102.241 57.5367 101.964 57.2435 101.785 56.8546C101.612 56.4657 101.525 55.9811 101.525 55.4008V51.2062C101.525 51.1075 101.565 51.0581 101.646 51.0581H102.525C102.606 51.0581 102.646 51.1044 102.646 51.197V55.5953C102.646 56.1385 102.775 56.5398 103.035 56.799C103.294 57.0583 103.674 57.1879 104.174 57.1879C104.501 57.1879 104.779 57.1324 105.007 57.0213C105.242 56.9102 105.421 56.7342 105.544 56.4935C105.667 56.2527 105.729 55.9441 105.729 55.5675V51.197C105.729 51.1044 105.766 51.0581 105.84 51.0581H106.544C106.618 51.0581 106.655 51.1013 106.655 51.1877V55.5583ZM107.756 51.1877C107.756 51.1445 107.765 51.1136 107.784 51.0951C107.809 51.0704 107.846 51.0581 107.895 51.0581H112.978C113.028 51.0581 113.062 51.0704 113.08 51.0951C113.099 51.1136 113.108 51.1445 113.108 51.1877V51.7803C113.108 51.8544 113.065 51.8914 112.978 51.8914H111.145C111.077 51.8914 111.043 51.9192 111.043 51.9748V57.7898C111.043 57.8824 111.003 57.9287 110.923 57.9287H110.052C109.972 57.9287 109.932 57.8855 109.932 57.7991V51.9933C109.932 51.9254 109.898 51.8914 109.83 51.8914H107.886C107.799 51.8914 107.756 51.8544 107.756 51.7803V51.1877ZM117.462 54.799C117.4 54.799 117.369 54.8298 117.369 54.8916V57.7713C117.369 57.8762 117.31 57.9287 117.193 57.9287H116.406C116.344 57.9287 116.301 57.9164 116.276 57.8917C116.258 57.867 116.249 57.8299 116.249 57.7806V51.197C116.249 51.1044 116.292 51.0581 116.378 51.0581H117.249C117.329 51.0581 117.369 51.1044 117.369 51.197V53.7989C117.369 53.8853 117.409 53.9286 117.489 53.9286H120.24C120.314 53.9286 120.351 53.8884 120.351 53.8082V51.1877C120.351 51.1013 120.388 51.0581 120.462 51.0581H121.351C121.431 51.0581 121.471 51.1044 121.471 51.197V57.7806C121.471 57.8299 121.459 57.867 121.434 57.8917C121.415 57.9164 121.375 57.9287 121.314 57.9287H120.536C120.412 57.9287 120.351 57.8762 120.351 57.7713V54.9008C120.351 54.8329 120.317 54.799 120.249 54.799H117.462ZM124.103 51.0581C124.183 51.0581 124.223 51.1044 124.223 51.197V57.7528C124.223 57.8207 124.208 57.867 124.177 57.8917C124.152 57.9164 124.103 57.9287 124.029 57.9287H123.27C123.202 57.9287 123.155 57.9195 123.131 57.9009C123.112 57.8762 123.103 57.8361 123.103 57.7806V51.197C123.103 51.1044 123.146 51.0581 123.233 51.0581H124.103ZM125.861 51.197C125.861 51.1044 125.904 51.0581 125.991 51.0581H126.861C126.941 51.0581 126.981 51.1044 126.981 51.197V56.9842C126.981 57.0521 127.012 57.0861 127.074 57.0861H130.204C130.29 57.0861 130.333 57.1231 130.333 57.1972V57.8083C130.333 57.8454 130.321 57.8762 130.296 57.9009C130.278 57.9195 130.247 57.9287 130.204 57.9287H126.018C125.957 57.9287 125.913 57.9164 125.889 57.8917C125.87 57.867 125.861 57.8299 125.861 57.7806V51.197ZM131.513 51.197C131.513 51.1044 131.556 51.0581 131.642 51.0581H132.513C132.593 51.0581 132.633 51.1044 132.633 51.197V56.9842C132.633 57.0521 132.664 57.0861 132.726 57.0861H135.855C135.942 57.0861 135.985 57.1231 135.985 57.1972V57.8083C135.985 57.8454 135.973 57.8762 135.948 57.9009C135.929 57.9195 135.898 57.9287 135.855 57.9287H131.67C131.608 57.9287 131.565 57.9164 131.54 57.8917C131.522 57.867 131.513 57.8299 131.513 57.7806V51.197Z" fill="#191919"/>
</svg>
