<svg width="44" height="60" viewBox="0 0 44 60" fill="none" xmlns="http://www.w3.org/2000/svg">
<path d="M8.94658 25.6666C10.2182 24.2712 12.0492 23.394 14.0814 23.394C15.3853 23.394 16.606 23.7558 17.6496 24.3831V12.6211H0.133728V24.257C1.1774 23.6296 2.39814 23.2679 3.70197 23.2679C5.79412 23.2679 7.67181 24.1988 8.94658 25.6666ZM7.13381 16.505H10.6494V20.6314H7.13381V16.505Z" fill="#D36C7A"/>
<path d="M3.70198 26.7837C1.80963 26.7837 0.270142 28.3233 0.270142 30.2155V36.1631H7.13381V30.3416V30.2155C7.13381 28.3232 5.59432 26.7837 3.70198 26.7837Z" fill="#D36C7A"/>
<path d="M14.0814 26.9097C12.189 26.9097 10.6495 28.4493 10.6495 30.3415V36.163H17.5132V30.3415C17.5132 28.4493 15.9737 26.9097 14.0814 26.9097Z" fill="#D36C7A"/>
<path d="M7.13381 39.6787H0.133728V47.379H7.13381V43.5791H10.6494V47.379H17.6496V39.6787H10.6494H7.13381Z" fill="#D36C7A"/>
<path d="M0.133728 54.5684L8.89174 60L17.6496 54.5684V50.8945H0.133728V54.5684Z" fill="#D36C7A"/>
<path d="M17.6496 5.43164L8.89174 0L0.133728 5.43164V9.10547H17.6496V5.43164Z" fill="#D36C7A"/>
<path d="M36.9837 25.5493H43.8662V34.176H36.9837V25.5493Z" fill="#D36C7A"/>
<path d="M43.8662 22.0336V11.5849C43.8662 9.47426 42.1552 7.76332 40.0446 7.76332H39.5876V4.36172C39.5876 1.95281 37.6348 0 35.2259 0C32.817 0 30.8641 1.95281 30.8641 4.36172V7.76332H30.4071C28.2964 7.76332 26.5855 9.47438 26.5855 11.5849V22.0336H43.8662ZM33.468 11.8354H36.9837V17.5056H33.468V11.8354Z" fill="#D36C7A"/>
<path d="M26.5855 25.5493H33.468V34.176H26.5855V25.5493Z" fill="#D36C7A"/>
<path d="M26.5855 37.6914V48.1402C26.5855 50.2509 28.2966 51.9618 30.4071 51.9618H30.8641V55.6382C30.8641 58.0471 32.817 59.9999 35.2259 59.9999C37.6348 59.9999 39.5876 58.0471 39.5876 55.6382V51.9618H40.0446C42.1553 51.9618 43.8662 50.2507 43.8662 48.1402V37.6914H26.5855ZM36.9837 47.9104H33.468V42.2402H36.9837V47.9104Z" fill="#D36C7A"/>
</svg>
